<svg width="50" height="50" viewBox="0 0 50 50" fill="none" xmlns="http://www.w3.org/2000/svg">
    <g id="code">
        <path id="Vector" fill-rule="evenodd" clip-rule="evenodd"
              d="M18.3125 42.0645L27.2623 6.6875L31.4375 7.87241L22.4878 43.3125L18.3125 42.0645Z" fill="#7572D5"/>
        <path id="Vector_2" fill-rule="evenodd" clip-rule="evenodd"
              d="M13.5025 12.6875L16.5625 15.9278L7.99501 25.0001L16.5625 34.0721L13.5025 37.3125L1.875 25.0001L13.5025 12.6875Z"
              fill="#7572D5"/>
        <path id="Vector_3" fill-rule="evenodd" clip-rule="evenodd"
              d="M36.4976 12.6875L33.4375 15.9278L42.0051 25.0001L33.4375 34.0721L36.4976 37.3125L48.125 25.0001L36.4976 12.6875Z"
              fill="#7572D5"/>
    </g>
    <g id="css3">
        <path id="Vector"
              d="M38.0508 10.8437L12.946 10.8377L13.3515 15.7547L32.6381 15.7577L32.1519 20.8502H19.5035L19.9608 25.6742H31.7358L31.0392 32.2806L25.4969 33.7886L19.8663 32.2701L19.508 28.3134H14.5359L15.0877 35.5411L25.4969 38.7341L35.7309 35.8652L38.0493 10.8452L38.0508 10.8437ZM5.49844 2.56873H45.4984L41.86 42.9999L25.4542 47.5687L9.13993 42.9968L5.49844 2.56873Z"
              fill="#7572D5"/>
    </g>
    <g id="figma">
        <path id="Vector"
              d="M17.7083 4.16663C14.2565 4.16663 11.4583 6.96486 11.4583 10.4166C11.4583 13.8684 14.2565 16.6666 17.7083 16.6666H32.2916C35.7435 16.6666 38.5416 13.8684 38.5416 10.4166C38.5416 6.96486 35.7435 4.16663 32.2916 4.16663H17.7083Z"
              fill="#7572D5"/>
        <path id="Vector_2"
              d="M32.2917 18.75C28.8398 18.75 26.0417 21.5481 26.0417 25C26.0417 28.4519 28.8398 31.25 32.2917 31.25C35.7436 31.25 38.5417 28.4519 38.5417 25C38.5417 21.5481 35.7436 18.75 32.2917 18.75Z"
              fill="#7572D5"/>
        <path id="Vector_3"
              d="M11.4583 25C11.4583 21.5481 14.2565 18.75 17.7083 18.75H23.9583V31.25H17.7083C14.2565 31.25 11.4583 28.4519 11.4583 25Z"
              fill="#7572D5"/>
        <path id="Vector_4"
              d="M17.7083 33.3334C14.2565 33.3334 11.4583 36.1315 11.4583 39.5834C11.4583 43.0352 14.2565 45.8334 17.7083 45.8334C21.1602 45.8334 23.9583 43.0352 23.9583 39.5834V33.3334H17.7083Z"
              fill="#7572D5"/>
    </g>
    <g id="instagram">
        <path id="Vector"
              d="M15.6516 2.09998H5.34844C3.55687 2.09998 2.1 3.55628 2.1 5.34715V8.77799V15.6528C2.1 17.4437 3.55687 18.9 5.34844 18.9H15.6516C17.4431 18.9 18.9 17.4437 18.9 15.6528V8.77143V5.34058C18.8934 3.55628 17.4366 2.09998 15.6516 2.09998ZM16.5834 4.03516H16.9575V4.40251V6.88217L14.1159 6.88873L14.1094 4.04172L16.5834 4.03516ZM8.09812 8.77143C8.63625 8.03016 9.50906 7.53816 10.4934 7.53816C11.4778 7.53816 12.3506 8.0236 12.8887 8.77143C13.2431 9.25687 13.4466 9.85382 13.4466 10.4967C13.4466 12.1236 12.1209 13.4552 10.4869 13.4552C8.85281 13.4552 7.54031 12.1236 7.54031 10.4967C7.54031 9.85382 7.75031 9.25687 8.09812 8.77143ZM17.2594 15.6462C17.2594 16.5318 16.5375 17.2534 15.6516 17.2534H5.34844C4.4625 17.2534 3.74062 16.5318 3.74062 15.6462V8.77143H6.2475C6.03094 9.30279 5.90625 9.88662 5.90625 10.4967C5.90625 13.0288 7.96687 15.0887 10.5 15.0887C13.0331 15.0887 15.0937 13.0288 15.0937 10.4967C15.0937 9.88662 14.9691 9.30279 14.7525 8.77143H17.2594V15.6462Z"
              fill="currentColor"/>
    </g>
    <g id="linkedin">
        <g id="Group">
            <path id="Vector" d="M5.80637 7.88635H2.53296V18.3626H5.80637V7.88635Z" fill="currentColor"/>
            <path id="Vector_2"
                  d="M4.10079 2.94019C2.89376 2.94019 2.10001 3.72082 2.10001 4.75729C2.10001 5.77408 2.86752 6.57439 4.05487 6.57439H4.08111C5.31437 6.57439 6.08189 5.76752 6.07533 4.75729C6.04909 3.72082 5.30781 2.94019 4.10079 2.94019Z"
                  fill="currentColor"/>
            <path id="Vector_3"
                  d="M14.7476 7.78796C12.8714 7.78796 11.6972 8.81131 11.4807 9.53291V7.88636H7.8006C7.84652 8.75883 7.8006 18.3626 7.8006 18.3626H11.4807V12.7014C11.4807 12.3799 11.4676 12.065 11.5594 11.842C11.8087 11.2123 12.3532 10.5563 13.3306 10.5563C14.6098 10.5563 15.1871 11.5271 15.1871 12.9441V18.3626H18.9V12.5374C18.9 9.29675 17.0764 7.78796 14.7476 7.78796Z"
                  fill="currentColor"/>
        </g>
    </g>
    <g id="quote">
        <path id="Vector"
              d="M13.5417 20.8333C13.0771 20.8333 12.6312 20.9042 12.1875 20.9688C12.3312 20.4854 12.4792 19.9938 12.7167 19.5521C12.9542 18.9104 13.325 18.3542 13.6937 17.7938C14.0021 17.1875 14.5458 16.7771 14.9458 16.2583C15.3646 15.7542 15.9354 15.4188 16.3875 15C16.8312 14.5625 17.4125 14.3438 17.875 14.0354C18.3583 13.7583 18.7792 13.4521 19.2292 13.3063L20.3521 12.8438L21.3396 12.4333L20.3292 8.39584L19.0854 8.69584C18.6875 8.79584 18.2021 8.9125 17.65 9.05209C17.0854 9.15625 16.4833 9.44167 15.8125 9.70209C15.15 9.99792 14.3833 10.1979 13.6708 10.6729C12.9542 11.1271 12.1271 11.5063 11.3979 12.1146C10.6917 12.7417 9.83958 13.2854 9.21041 14.0833C8.52291 14.8292 7.84375 15.6125 7.31666 16.5042C6.70625 17.3542 6.29166 18.2875 5.85416 19.2104C5.45833 20.1333 5.13958 21.0771 4.87916 21.9938C4.38541 23.8313 4.16458 25.5771 4.07916 27.0708C4.00833 28.5667 4.05 29.8104 4.1375 30.7104C4.16875 31.1354 4.22708 31.5479 4.26875 31.8333L4.32083 32.1833L4.375 32.1708C4.74554 33.9017 5.59855 35.4924 6.83534 36.7587C8.07213 38.0251 9.64217 38.9154 11.3638 39.3267C13.0855 39.738 14.8884 39.6535 16.5641 39.083C18.2397 38.5124 19.7196 37.4792 20.8325 36.1027C21.9454 34.7262 22.6459 33.0628 22.853 31.3048C23.06 29.5468 22.7651 27.7662 22.0024 26.1688C21.2396 24.5714 20.0403 23.2226 18.543 22.2784C17.0458 21.3342 15.3118 20.8332 13.5417 20.8333ZM36.4583 20.8333C35.9937 20.8333 35.5479 20.9042 35.1042 20.9688C35.2479 20.4854 35.3958 19.9938 35.6333 19.5521C35.8708 18.9104 36.2417 18.3542 36.6104 17.7938C36.9188 17.1875 37.4625 16.7771 37.8625 16.2583C38.2812 15.7542 38.8521 15.4188 39.3042 15C39.7479 14.5625 40.3292 14.3438 40.7917 14.0354C41.275 13.7583 41.6958 13.4521 42.1458 13.3063L43.2687 12.8438L44.2562 12.4333L43.2458 8.39584L42.0021 8.69584C41.6042 8.79584 41.1187 8.9125 40.5667 9.05209C40.0021 9.15625 39.4 9.44167 38.7292 9.70209C38.0688 10 37.3 10.1979 36.5875 10.675C35.8708 11.1292 35.0438 11.5083 34.3146 12.1167C33.6083 12.7438 32.7562 13.2875 32.1271 14.0833C31.4396 14.8292 30.7604 15.6125 30.2333 16.5042C29.6229 17.3542 29.2083 18.2875 28.7708 19.2104C28.375 20.1333 28.0562 21.0771 27.7958 21.9938C27.3021 23.8313 27.0812 25.5771 26.9958 27.0708C26.925 28.5667 26.9667 29.8104 27.0542 30.7104C27.0854 31.1354 27.1437 31.5479 27.1854 31.8333L27.2375 32.1833L27.2917 32.1708C27.6622 33.9017 28.5152 35.4924 29.752 36.7587C30.9888 38.0251 32.5588 38.9154 34.2805 39.3267C36.0022 39.738 37.8051 39.6535 39.4807 39.083C41.1564 38.5124 42.6363 37.4792 43.7492 36.1027C44.8621 34.7262 45.5626 33.0628 45.7696 31.3048C45.9766 29.5468 45.6817 27.7662 44.919 26.1688C44.1563 24.5714 42.957 23.2226 41.4597 22.2784C39.9624 21.3342 38.2284 20.8332 36.4583 20.8333Z"
              fill="#7572D5"/>
    </g>

    <g id="styledComponentsIcon">
        <path id="Vector"
              d="M37.2591 6.25L36.9888 7.64963C36.5708 10.3021 36.7221 11.061 37.8682 12.0454L38.9747 12.9546L37.8286 18.0305C37.1438 21.0588 36.3041 23.5968 35.7707 24.4308C35.313 25.1503 34.7796 26.2099 34.6642 26.7791C34.4732 27.4592 33.8245 28.1429 32.8334 28.7478C31.9576 29.2418 30.2385 30.5663 29.0203 31.6294C28.0472 32.4993 27.3769 33.0326 27.0129 33.2617L25.8235 34.196C25.4415 34.8046 25.2253 35.295 25.1424 35.6672C25.0595 36.0503 25.1063 36.3044 25.2289 36.4905C25.3478 36.6695 25.5532 36.7948 25.8343 36.8736C26.1671 36.951 26.5097 36.9788 26.8507 36.9559C27.6222 36.9035 28.3858 36.7691 29.1284 36.555C29.3807 36.487 29.5789 36.4225 29.7519 36.3653C30.0186 36.0395 30.6349 35.4238 31.7269 34.3535C34.6246 31.5149 35.731 29.9613 34.5885 30.3802C34.1669 30.5305 34.3579 30.1511 35.0823 29.3922C36.6104 27.9138 37.4862 25.6801 39.317 18.6748C40.7659 13.1443 40.7659 13.0656 41.8327 13.0656C42.3336 13.0656 43.75 13.1515 43.75 13.1515V6.25H40.4992H37.2591ZM24.4216 18.0806C23.3692 18.0735 21.1058 19.6664 14.3303 25.1611C14.0383 25.8519 14.0131 26.328 14.1464 26.6359C14.2329 26.8471 14.3915 26.9938 14.6114 27.1012C14.8276 27.2086 15.1087 27.2731 15.4187 27.2981C16.035 27.3518 16.763 27.2552 17.3504 27.1406L17.7469 27.0511C17.8826 26.8704 18.0608 26.7254 18.2659 26.6287C18.6839 26.3996 20.4391 24.8103 22.1943 23.1064C25.2829 19.9993 26.0073 18.5961 24.7495 18.1415C24.6463 18.1007 24.5326 18.08 24.4216 18.0806ZM32.336 20.2391C31.4098 20.2642 29.7411 21.3309 26.8831 23.5968C25.4487 24.753 24.5405 25.3759 24.0539 25.5047L22.1654 26.9867C21.4554 28.2753 21.3509 29.0736 21.5383 29.5139C21.5852 29.6225 21.6533 29.7208 21.7387 29.8031C21.8241 29.8855 21.925 29.9502 22.0357 29.9936C22.311 30.1015 22.6046 30.1562 22.9006 30.1546C23.608 30.1471 24.3112 30.0448 24.991 29.8504C25.3453 29.7559 25.6952 29.6461 26.0398 29.521L26.1443 29.4781L26.3353 29.3779C26.6957 28.9161 27.5246 28.0462 28.5626 27.044C31.8423 23.9011 33.5181 21.6674 33.1758 20.8333C33.0208 20.4288 32.7541 20.2248 32.336 20.2391ZM23.5998 24.1051C23.3331 24.1337 22.7349 24.5919 21.6573 25.5298C20.1003 26.8972 18.4028 27.6847 17.8154 27.3339C17.6788 27.3645 17.5419 27.3932 17.4045 27.4198C16.8062 27.5379 16.0602 27.6346 15.3934 27.5809C15.0793 27.562 14.7714 27.4855 14.4852 27.3554C14.2153 27.2328 13.9999 27.0164 13.8797 26.7468C13.7464 26.4247 13.7464 26.0238 13.8978 25.5119L11.5551 27.4234L6.2536 31.7798V38.8424L23.6251 25.2506C23.6217 25.1018 23.6411 24.9533 23.6827 24.8103C23.8161 24.3306 23.8089 24.0872 23.5998 24.1087V24.1051ZM31.0746 26.3925C30.8115 26.3925 30.3718 26.7612 29.669 27.5021C28.714 28.5152 27.2111 29.496 26.4146 29.6964L26.292 29.7609C26.1613 29.8145 26.0291 29.8646 25.8956 29.9112C25.6794 29.9828 25.3982 30.0687 25.0739 30.1546C24.4252 30.33 23.6179 30.4911 22.897 30.4732C22.5572 30.4728 22.2207 30.4072 21.9059 30.2799C21.6093 30.1585 21.3716 29.9275 21.2428 29.6356C21.0338 29.138 21.1167 28.44 21.5744 27.4485L6.25 39.4366V43.75H12.9823L27.2615 32.6103C27.6327 32.2022 28.1914 31.6438 28.9446 30.9457C30.9629 29.0879 31.4206 28.4472 31.4206 27.4986C31.4206 26.7612 31.3377 26.3889 31.0746 26.3889V26.3925ZM34.4732 33.3727L33.2514 34.5826C32.5667 35.2269 31.3449 36.0216 30.5088 36.3617L30.343 36.4333L30.3322 36.4512L30.2961 36.487C30.2637 36.512 30.2493 36.5156 30.2241 36.5263C29.8903 36.6518 29.5512 36.7629 29.2077 36.8592C28.4441 37.08 27.6586 37.218 26.8651 37.2709C26.4899 37.2948 26.1132 37.2622 25.7478 37.1743C25.4307 37.1049 25.1508 36.9213 24.9622 36.6588C24.7892 36.3939 24.7387 36.0395 24.836 35.6028C24.9134 35.2919 25.0284 34.9914 25.1784 34.7079L13.6563 43.75H28.9807L30.8115 41.6667C33.3271 38.7529 34.4732 36.6695 34.4732 34.8869V33.3727Z"
              fill="#7572D5"/>
    </g>

    <g id="react">
        <g clip-path="url(#clip0_20_1854)">
            <g id="Layer 2">
                <g id="Q3 icons">
                    <g id="Group">
                        <path id="Vector"
                              d="M47.8125 25C47.8125 22.0833 44.6875 19.375 39.4792 17.5L38.5417 17.1875V16.7708C39.6875 11.0416 38.8542 6.7708 36.25 5.2083C33.6458 3.6458 29.7917 5.10414 25.625 8.74997L25 9.37497L24.7917 9.16664H24.5833C20.3125 5.2083 16.1458 3.85414 13.5417 5.31247C10.9375 6.7708 10.2083 10.8333 11.25 16.1458C11.3596 16.4838 11.4295 16.8333 11.4583 17.1875L10.3125 17.6041C5.20833 19.375 2.1875 22.0833 2.1875 25C2.1875 27.9166 5.52083 30.8333 10.7292 32.7083L11.4583 32.9166C11.3296 33.2854 11.2593 33.672 11.25 34.0625C10.2083 39.2708 11.1458 43.2291 13.5417 44.6875C15.9375 46.1458 20.3125 44.7916 24.4792 41.1458L25.1042 40.625L25.9375 41.4583C28.8542 43.9583 31.7708 45.3125 34.0625 45.3125C34.8708 45.3309 35.6671 45.1137 36.3542 44.6875C38.9583 43.2291 39.8958 38.9583 38.75 33.5416V33.3333C38.705 33.1619 38.6702 32.988 38.6458 32.8125H38.9583C44.4792 30.8333 47.8125 28.0208 47.8125 25ZM44.7917 25C44.7917 26.25 42.5 28.4375 38.0208 29.8958H37.8125C37.2664 28.2202 36.6051 26.5843 35.8333 25C36.5625 23.3333 37.1875 21.6666 37.7083 20.1041L38.5417 20.3125C42.7083 21.7708 44.7917 23.75 44.7917 25ZM27.9167 39.1666L27.0833 38.5416C28.2761 37.2201 29.3891 35.8287 30.4167 34.375L35.7292 33.5416C35.8333 33.75 35.8333 33.9583 35.9375 34.0625C36.3087 35.9492 36.379 37.8829 36.1458 39.7916C35.9995 40.7045 35.5608 41.5452 34.8958 42.1875C33.8542 42.8125 31.0417 41.9791 27.9167 39.1666ZM26.5625 34.5833L25.1042 36.4583L23.4375 34.5833H26.5625ZM12.2917 20C12.8152 21.7174 13.4771 23.3895 14.2708 25C13.4765 26.646 12.8146 28.3528 12.2917 30.1041L11.6667 29.8958C9.84256 29.3201 8.1454 28.4008 6.66667 27.1875C6.28377 26.9455 5.95605 26.6257 5.7048 26.2488C5.45356 25.872 5.2844 25.4465 5.20833 25C5.20833 23.75 7.29167 21.7708 11.25 20.4166L12.2917 20ZM23.4375 15.4166L25 13.6458L26.5625 15.4166H23.4375ZM34.8958 7.81247C36.0417 8.43747 36.6667 11.5625 35.7292 16.1458C35.734 16.2022 35.7272 16.2591 35.7093 16.3128C35.6914 16.3665 35.6627 16.416 35.625 16.4583L30.4167 15.625C29.3891 14.1712 28.2761 12.7799 27.0833 11.4583L27.7083 10.9375C31.0417 8.0208 33.75 7.18747 34.8958 7.81247ZM17.5 18.8541L16.6667 20.2083L15.9375 21.5625C15.625 20.8333 15.4167 20.1041 15.1042 19.2708L17.5 18.8541ZM15.1042 30.7291C15.4167 30 15.625 29.2708 15.9375 28.4375L16.6667 29.7916L17.5 31.1458L15.1042 30.7291ZM32.5 25C31.9699 26.142 31.3788 27.2548 30.7292 28.3333C30.1042 29.4791 29.375 30.5208 28.75 31.5625H21.25C20.5208 30.4166 19.7917 29.375 19.2708 28.3333C18.6161 27.2577 18.0248 26.1447 17.5 25C18.0054 23.8458 18.5974 22.7315 19.2708 21.6666C19.8693 20.5874 20.5301 19.544 21.25 18.5416C23.7457 18.3334 26.2543 18.3334 28.75 18.5416C29.4792 19.5833 30.1042 20.625 30.7292 21.6666C31.4026 22.7315 31.9946 23.8458 32.5 25ZM33.3333 20.2083L32.5 18.8541L34.8958 19.375C34.6639 20.1208 34.3856 20.8514 34.0625 21.5625L33.3333 20.2083ZM32.5 31.1458L33.3333 29.7916L34.0625 28.3333L35 30.7291L32.5 31.1458ZM22.8125 11.3541H22.9167L19.5833 15.5208L14.375 16.3541C14.2708 16.0416 14.2708 15.8333 14.1667 15.5208C13.3333 11.25 13.9583 8.3333 15 7.81247C15.2766 7.63082 15.61 7.55672 15.9375 7.60414C17.3958 7.60414 19.8958 8.6458 22.7083 11.1458L22.8125 11.3541ZM14.1667 34.5833C14.1857 34.2617 14.256 33.9452 14.375 33.6458L19.6875 34.375C20.689 35.8481 21.8034 37.2412 23.0208 38.5416L22.8125 38.75L22.6042 38.9583C21.184 40.2738 19.5211 41.2999 17.7083 41.9791C17.3107 42.1874 16.875 42.3133 16.4275 42.3491C15.98 42.3849 15.5299 42.3299 15.1042 42.1875C13.9583 41.5625 13.3333 38.75 14.1667 34.5833Z"
                              fill="#7572D5"/>
                        <path id="Vector_2"
                              d="M25 20.4166C24.0894 20.3959 23.1932 20.647 22.4259 21.1379C21.6586 21.6287 21.0549 22.3371 20.692 23.1726C20.3291 24.008 20.2233 24.9327 20.3882 25.8285C20.5532 26.7243 20.9812 27.5507 21.6179 28.2022C22.2545 28.8536 23.0709 29.3006 23.9627 29.4861C24.8545 29.6715 25.7813 29.587 26.6249 29.2434C27.4685 28.8998 28.1905 28.3126 28.6989 27.5568C29.2073 26.801 29.4789 25.9108 29.4792 24.9999C29.4795 23.8022 29.0109 22.6519 28.1738 21.7953C27.3366 20.9387 26.1974 20.4438 25 20.4166Z"
                              fill="#7572D5"/>
                    </g>
                </g>
            </g>
        </g>
        <defs>
            <clipPath id="clip0_20_1854">
                <rect width="50" height="50" fill="white"/>
            </clipPath>
        </defs>
    </g>

    <g id="telegram">
        <path id="Vector"
              d="M18.9057 4.76449L16.3705 16.7208C16.1791 17.5644 15.6804 17.7745 14.9717 17.3772L11.1085 14.5305L9.24472 16.3235C9.0383 16.5299 8.86608 16.7022 8.46824 16.7022L8.74607 12.7681L15.9054 6.29885C16.2169 6.02162 15.8376 5.86741 15.4218 6.14524L6.57084 11.7186L2.76043 10.5257C1.93174 10.2671 1.91674 9.69701 2.93325 9.29917L17.837 3.55716C18.5271 3.29854 19.1308 3.71018 18.9057 4.76449Z"
              fill="currentColor"/>
    </g>
    <symbol id="whatsapp" viewBox="0 0 192 192">
        <path d="M96 16c-44.183 0-80 35.817-80 80 0 13.12 3.163 25.517 8.771 36.455l-8.608 36.155a6.002 6.002 0 0 0 7.227 7.227l36.155-8.608C70.483 172.837 82.88 176 96 176c44.183 0 80-35.817 80-80s-35.817-80-80-80Z"
              fill="currentColor"/>
        <path d="M28 96c0-37.555 30.445-68 68-68s68 30.445 68 68-30.445 68-68 68c-11.884 0-23.04-3.043-32.747-8.389a6.003 6.003 0 0 0-4.284-.581l-28.874 6.875 6.875-28.874a6.001 6.001 0 0 0-.581-4.284C31.043 119.039 28 107.884 28 96Z"
              fill="none"/>
        <path d="M74.023 117.977c11.975 11.974 27.942 20.007 45.753 21.919 11.776 1.263 20.224-8.439 20.224-18.517v-6.996a18.956 18.956 0 0 0-13.509-18.157l-.557-.167-.57-.112-8.022-1.58a18.958 18.958 0 0 0-15.25 2.568 42.144 42.144 0 0 1-7.027-7.027 18.958 18.958 0 0 0 2.569-15.252l-1.582-8.021-.112-.57-.167-.557A18.955 18.955 0 0 0 77.618 52H70.62c-10.077 0-19.78 8.446-18.517 20.223 1.912 17.81 9.944 33.779 21.92 45.754Z"
              fill="currentColor"/>
        <path d="M107.675 107.798a6.955 6.955 0 0 1 6.916-1.743l8.453 1.665a6.957 6.957 0 0 1 4.956 6.663v6.996c0 3.841-3.124 6.995-6.943 6.585a63.903 63.903 0 0 1-26.887-9.232 64.594 64.594 0 0 1-11.661-9.241 64.592 64.592 0 0 1-9.241-11.661 63.917 63.917 0 0 1-9.232-26.888C63.626 67.123 66.78 64 70.62 64h6.997a6.955 6.955 0 0 1 6.66 4.957l1.667 8.451a6.956 6.956 0 0 1-1.743 6.917l-1.12 1.12a5.935 5.935 0 0 0-1.545 2.669c-.372 1.403-.204 2.921.603 4.223a54.119 54.119 0 0 0 7.745 9.777 54.102 54.102 0 0 0 9.778 7.746c1.302.806 2.819.975 4.223.603a5.94 5.94 0 0 0 2.669-1.545l1.12-1.12Z"
              fill="black"/>
    </symbol>
    <symbol id="email" viewBox="0 0 50 50">
        <g transform="scale(1.5) translate(-7.5, -7.5)">
            <path d="M10 15C10 13.3431 11.3431 12 13 12H37C38.6569 12 40 13.3431 40 15V35C40 36.6569 38.6569 38 37 38H13C11.3431 38 10 36.6569 10 35V15Z"
                  stroke="currentColor" stroke-width="2" fill="none"/>
            <path d="M10 15L25 27L40 15" stroke="currentColor" stroke-width="2" fill="currentColor"/>
        </g>
    </symbol>
    <symbol id="logo" viewBox="0 0 100 100">
        <!-- Буква V -->
        <g>
        <g transform="scale(1.1) translate(-7.5, -7.5)">
        <path
                d="M 20,20 L 50,80 L 80,20"
                fill="none"
                stroke="white"
                stroke-width="6"

        />
        </g>
        <!-- Буква T -->
        <g transform="scale(1.5) translate(-7.5, -2.5)">
        <path
                d="M 30,20 H 70 M 50,20 V 80"
                fill="none"
                stroke="#7572D5"
                stroke-width="6"
        />
        </g>
        </g>
    </symbol>

    <g id="vk">
        <path id="Vector"
              d="M18.1696 13.9941C17.8038 13.5391 17.3881 13.1314 16.9861 12.737C16.8432 12.5968 16.6954 12.4518 16.5529 12.3076C16.1439 11.8932 16.129 11.7375 16.4529 11.2668C16.6769 10.9424 16.9145 10.6175 17.1442 10.3033C17.3526 10.0183 17.568 9.72351 17.7746 9.42777L17.817 9.36697C18.2117 8.80103 18.6199 8.21583 18.8372 7.50988C18.8936 7.32363 18.9528 7.04955 18.8174 6.82036C18.682 6.59137 18.4195 6.52151 18.2337 6.48888C18.1418 6.47273 18.0506 6.47053 17.9659 6.47053L15.3809 6.46861L15.3595 6.46842C14.9687 6.46842 14.7053 6.65927 14.5544 7.05194C14.4103 7.42713 14.252 7.82665 14.0714 8.20653C13.7119 8.96298 13.2554 9.83425 12.5948 10.5609L12.5669 10.5918C12.4889 10.6787 12.4005 10.777 12.3359 10.777C12.326 10.777 12.3152 10.7751 12.303 10.7711C12.1662 10.7159 12.0744 10.3726 12.0785 10.213C12.0786 10.2108 12.0786 10.2086 12.0786 10.2064L12.0768 7.1105C12.0768 7.09976 12.0761 7.08913 12.0747 7.07849C12.009 6.57522 11.8633 6.26195 11.3129 6.15026C11.2983 6.14724 11.2834 6.14575 11.2685 6.14575H8.5806C8.14268 6.14575 7.90138 6.33018 7.67456 6.60623C7.61334 6.68002 7.48589 6.83364 7.54906 7.01998C7.61315 7.20911 7.8212 7.24955 7.88894 7.26268C8.22522 7.32899 8.41477 7.54213 8.46846 7.91453C8.56219 8.56121 8.57371 9.25144 8.50471 10.0868C8.48547 10.3189 8.44742 10.4982 8.38471 10.6514C8.37015 10.6872 8.31849 10.8038 8.26582 10.8039C8.24908 10.8039 8.20067 10.7971 8.11248 10.7341C7.90397 10.5861 7.75142 10.3749 7.57357 10.114C6.96853 9.22796 6.46074 8.25191 6.02097 7.12938C5.85787 6.71615 5.55327 6.48481 5.16289 6.478C4.73395 6.47125 4.34504 6.46799 3.97413 6.46799C3.56886 6.46799 3.19314 6.47187 2.82625 6.47978C2.51217 6.48553 2.29492 6.58308 2.18061 6.76996C2.06611 6.95697 2.07356 7.20264 2.20276 7.50001C3.23702 9.88254 4.17478 11.6149 5.24345 13.1171C5.99225 14.1683 6.74333 14.8959 7.60686 15.4068C8.51664 15.9461 9.5362 16.2083 10.7237 16.2083C10.8583 16.2083 10.9975 16.2048 11.1379 16.198C11.8279 16.1632 12.0839 15.9044 12.1163 15.2082C12.1317 14.8525 12.1692 14.4793 12.338 14.1611C12.4445 13.9606 12.5439 13.9606 12.5765 13.9606C12.6394 13.9606 12.7174 13.9906 12.8011 14.0468C12.9513 14.1484 13.0801 14.2845 13.1857 14.4034C13.285 14.5163 13.3833 14.6304 13.4817 14.7446C13.6939 14.9909 13.9134 15.2456 14.1427 15.4871C14.6445 16.0162 15.1973 16.2488 15.8323 16.1983H18.2023C18.2073 16.1983 18.2124 16.1981 18.2175 16.1978C18.4536 16.1817 18.6582 16.0459 18.7786 15.8254C18.9279 15.5522 18.9249 15.2037 18.7706 14.893C18.5956 14.5415 18.3685 14.2413 18.1696 13.9941Z"
              fill="currentColor"/>
    </g>
    <g id="typeScript">
        <path id="Vector"
              d="M5 25V45H45V5H5V25ZM37.235 23.4067C38.2517 23.66 39.025 24.1117 39.7367 24.8483C40.105 25.2417 40.6517 25.9583 40.695 26.1317C40.7083 26.1817 38.9683 27.3483 37.915 28.0033C37.8767 28.0283 37.7233 27.8633 37.5533 27.61C37.0367 26.86 36.4983 26.5367 35.6733 26.48C34.46 26.3967 33.68 27.0317 33.6867 28.0917C33.6756 28.3523 33.7343 28.6112 33.8567 28.8417C34.1233 29.3933 34.62 29.725 36.1733 30.3967C39.0383 31.63 40.2633 32.4417 41.025 33.5967C41.875 34.885 42.0667 36.9433 41.4883 38.4733C40.855 40.1367 39.28 41.2667 37.0633 41.64C36.3783 41.7617 34.7533 41.7433 34.0167 41.61C32.41 41.3233 30.8867 40.53 29.9467 39.4883C29.5783 39.0833 28.86 38.0217 28.905 37.9467C28.9233 37.92 29.0883 37.8183 29.2717 37.7117C29.4517 37.61 30.1233 37.2217 30.7583 36.8533L31.9083 36.1867L32.15 36.5433C32.4867 37.0567 33.2217 37.7617 33.6667 37.9967C34.9433 38.67 36.695 38.575 37.5583 37.8C37.7319 37.6538 37.8694 37.4693 37.9599 37.2612C38.0504 37.053 38.0915 36.8267 38.08 36.6C38.08 36.1367 38.0217 35.9333 37.78 35.5833C37.47 35.14 36.835 34.7667 35.0317 33.9833C32.9683 33.095 32.08 32.5433 31.2667 31.6667C30.759 31.0881 30.3841 30.4055 30.1683 29.6667C30.0167 29.1017 29.9783 27.685 30.0983 27.115C30.5233 25.12 32.0283 23.7317 34.2 23.3183C34.905 23.185 36.5433 23.235 37.235 23.4067ZM27.845 25.0767L27.8583 26.715H22.65V41.5083H18.9667V26.715H13.7633V25.1083C13.7633 24.2183 13.7817 23.475 13.8067 23.4583C13.8267 23.4317 16.995 23.4183 20.835 23.425L27.8267 23.445L27.845 25.0767Z"
              fill="#7572D5"/>
    </g>

    <g id="btn-go-top">
        <path id="Vector"
              d="M13.8072 11.2806V22H16.1928V11.2806L21.3134 16.0812L23 14.5L15 7L7 14.5L8.6866 16.0812L13.8072 11.2806Z"
              fill="white"/>
    </g>
    <!--=========================SKILLS==============================-->
    <symbol id="html" viewBox="0 0 120 120">
        <path d="M20 100L15 5H105L95 100L60 110L20 100Z" fill="#7572D5" />
        <path d="M60 102L85 95L95 10H60V102Z" fill="#7572D5" />
        <path d="M60 45H45L43 35H60V25H30L31 30L35 60H60V45ZM60 80L59.95 80.4L47 75L46 65H35L37 85L60 90V80Z" fill="#4A4A4A" />
        <path d="M60 45V60H73L72 75L60 80V90L82 85L83 83L86 52L86.9 45H60ZM60 25V35H87L87.2 33L88.7 30L89 25H60Z" fill="#4A4A4A" />
    </symbol>


    <g id="css">
        <path d="M22.1325 101.154L13.71 7.4375H106.29L97.8562 101.139L59.9437 111.562L22.1325 101.154Z" fill="#1572B6"/>
        <path d="M60 103.597L90.6375 95.174L97.845 15.1019H60V103.597Z" fill="#33A9DC"/>
        <path d="M60 49.054H75.3375L76.395 37.2842H60V25.7896H89.0625L88.785 28.8724L85.9387 60.5487H60V49.054Z"
              fill="white"/>
        <path d="M60.0711 78.9045L60.0186 78.9193L47.1112 75.4609L46.2862 66.2942H34.6499L36.2737 84.3413L60.0149 90.8788L60.0711 90.864V78.9045Z"
              fill="#EBEBEB"/>
        <path d="M74.3513 60.0615L72.9563 75.4534L60.03 78.9119V90.8714L83.79 84.3412L83.9663 82.4001L85.98 60.0615H74.3513Z"
              fill="white"/>
        <path d="M60.0411 25.7896V37.2842H32.0436L31.8111 34.6997L31.2824 28.8724L31.0049 25.7896H60.0411ZM59.9999 49.054V60.5487H47.2536L47.0211 57.9642L46.4961 52.1369L46.2186 49.054H59.9999Z"
              fill="#EBEBEB"/>
    </g>
    <symbol id="js" viewBox="0 0 120 120">
        <path id="Vector" d="M2.25488 0H117.745V120H2.25488V0Z" fill="#7572D5"/>
        <path id="Vector_2"
              d="M32.6203 100.28L41.4584 94.7229C43.1635 97.8641 44.7145 100.522 48.435 100.522C52.0012 100.522 54.2496 99.0723 54.2496 93.4342V55.0913H65.1028V93.5936C65.1028 105.274 58.5136 110.59 48.9002 110.59C40.2181 110.59 35.1783 105.918 32.6201 100.28"
              fill="#1F2626"/>
        <path id="Vector_3"
              d="M71 99.0723L79.837 93.7559C82.1633 97.7033 85.1868 100.603 90.5357 100.603C95.0326 100.603 97.9003 98.2668 97.9003 95.0447C97.9003 91.1782 94.9545 89.8087 89.9929 87.554L87.2803 86.3449C79.4499 82.8818 74.2555 78.5321 74.2555 69.3491C74.2555 60.8912 80.4574 54.4468 90.1483 54.4468C97.048 54.4468 102.01 56.9441 105.575 63.4689L97.125 69.1071C95.2644 65.6437 93.2493 64.2746 90.1485 64.2746C86.9699 64.2746 84.9542 66.3689 84.9542 69.1071C84.9542 72.4904 86.9699 73.8601 91.6209 75.9546L94.334 77.1628C103.56 81.2711 108.754 85.4593 108.754 94.8835C108.754 105.034 101.079 110.591 90.7685 110.591C80.6904 110.591 74.1782 105.597 71.0002 99.0723"
              fill="#1F2626"/>
    </symbol>

    <g id="ts">
        <path id="Vector" d="M0 60V120H60H120V60V0H60H0V60Z" fill="#007ACC"/>
        <path id="Vector_2"
              d="M26.5373 60.3979L26.4992 65.3122H34.3087H42.1182L42.1182 87.5026V109.693H47.6421H53.1659V87.5026L53.1659 65.3122H60.9754H68.7849V60.4931C68.7849 57.8264 68.7278 55.5979 68.6516 55.5407C68.5944 55.4645 59.0897 55.4264 47.5659 55.4455L26.5944 55.5026L26.5373 60.3979Z"
              fill="white"/>
        <path id="Vector_3"
              d="M96.8265 55.3636C99.8741 56.1255 102.198 57.4779 104.331 59.6874C105.436 60.8684 107.074 63.0208 107.207 63.535C107.246 63.6874 102.026 67.1922 98.8646 69.1541C98.7503 69.2303 98.2931 68.7351 97.7789 67.9731C96.236 65.7255 94.6169 64.7541 92.1408 64.5827C88.5027 64.335 86.1598 66.2398 86.1789 69.4208C86.1789 70.3541 86.3122 70.9065 86.6931 71.6684C87.4931 73.3255 88.9789 74.316 93.6455 76.3351C102.236 80.0303 105.912 82.4684 108.198 85.935C110.75 89.8017 111.322 95.9731 109.588 100.564C107.684 105.554 102.96 108.945 96.3122 110.068C94.255 110.43 89.3789 110.373 87.1693 109.973C82.3503 109.116 77.7789 106.735 74.9598 103.611C73.855 102.392 71.7027 99.2112 71.836 98.9827C71.8931 98.9065 72.3884 98.6017 72.9408 98.2779C73.4741 97.9731 75.4931 96.8112 77.3979 95.7065L80.8455 93.7065L81.5693 94.7731C82.5789 96.316 84.7884 98.4303 86.1217 99.135C89.9503 101.154 95.2074 100.868 97.7979 98.5446C98.9027 97.535 99.3598 96.4874 99.3598 94.9446C99.3598 93.5541 99.1884 92.9446 98.4646 91.897C97.5312 90.5636 95.6265 89.4398 90.2169 87.097C84.0265 84.4303 81.3598 82.7731 78.9217 80.1446C77.5122 78.6208 76.1789 76.1827 75.6265 74.1446C75.1693 72.4493 75.055 68.2017 75.4169 66.4874C76.6931 60.5065 81.2074 56.335 87.7217 55.097C89.836 54.697 94.7503 54.8493 96.8265 55.3636Z"
              fill="white"/>
    </g>
    <g id="react-vanila">
        <path id="Vector"
              d="M0 59.7974C0 69.273 8.84919 78.1189 22.8007 83.1049C20.0147 97.7701 22.3014 109.59 29.9391 114.196C37.79 118.93 49.4858 115.653 60.5867 105.507C71.4076 115.243 82.3439 119.075 89.9746 114.456C97.8178 109.709 100.203 97.087 97.3404 81.964C111.872 76.9405 120 69.3977 120 59.7974C120 50.5414 111.134 42.5338 97.3711 37.5796C100.453 21.8316 97.8416 10.2984 89.8877 5.50237C82.2193 0.878721 71.156 4.9087 60.176 14.9001C48.7532 4.29502 37.799 1.05714 29.8528 5.86712C22.1918 10.5039 20.0057 22.5388 22.8007 37.4756C9.32028 42.39 0 50.5784 0 59.7974Z"
              fill="white"/>
        <path id="Vector_2"
              d="M94.4565 42.4993C93.351 42.1014 92.2054 41.7249 91.0259 41.3689C91.2198 40.5416 91.3977 39.725 91.5559 38.9223C94.1528 25.7416 92.4549 15.1232 86.6569 11.6271C81.0973 8.27488 72.005 11.7701 62.8223 20.1261C61.9393 20.9296 61.0538 21.7803 60.1687 22.6718C59.5789 22.0819 58.9901 21.5119 58.4028 20.9666C48.779 12.032 39.1327 8.26675 33.3404 11.7729C27.7861 15.1349 26.1413 25.1172 28.4789 37.6087C28.7046 38.8152 28.9685 40.0473 29.2669 41.3001C27.9016 41.7053 26.5836 42.1373 25.3226 42.5969C14.0397 46.71 6.83398 53.1562 6.83398 59.8427C6.83398 66.7485 14.5693 73.6751 26.3213 77.8751C27.2487 78.2065 28.211 78.5199 29.2028 78.8174C28.8808 80.1723 28.6009 81.5 28.3658 82.7951C26.1369 95.0697 27.8776 104.816 33.417 108.157C39.1388 111.607 48.7415 108.061 58.0921 99.5144C58.8311 98.8389 59.5729 98.1224 60.3159 97.3715C61.279 98.3412 62.2405 99.259 63.197 100.12C72.2541 108.269 81.1995 111.56 86.7339 108.21C92.4499 104.75 94.3076 94.2799 91.8958 81.5413C91.7116 80.5684 91.4973 79.5745 91.2566 78.5629C91.9309 78.3545 92.593 78.1393 93.2385 77.9155C105.456 73.683 113.405 66.8407 113.405 59.8427C113.405 53.132 105.967 46.6423 94.4565 42.4993Z"
              fill="#53C1DE"/>
        <path id="Vector_3"
              d="M91.8052 73.3971C91.2225 73.5988 90.6246 73.7938 90.0153 73.9828C88.6665 69.5183 86.8462 64.7708 84.6187 59.8659C86.7444 55.0779 88.4943 50.3912 89.8053 45.9555C90.8955 46.2854 91.9536 46.6333 92.9732 47.0004C102.835 50.5502 108.851 55.7987 108.851 59.8427C108.851 64.1504 102.354 69.7424 91.8052 73.3971ZM87.4282 82.4659C88.4947 88.0987 88.647 93.1914 87.9406 97.1726C87.3059 100.75 86.0294 103.135 84.4512 104.09C81.0926 106.123 73.9104 103.481 66.1646 96.5114C65.2766 95.7124 64.3822 94.8593 63.485 93.9565C66.4878 90.5225 69.489 86.5304 72.4181 82.0968C77.57 81.6188 82.4374 80.8373 86.8514 79.7704C87.0688 80.6873 87.2619 81.5866 87.4282 82.4659ZM43.1649 103.739C39.8836 104.951 37.2702 104.985 35.6904 104.033C32.3288 102.006 30.9313 94.1802 32.8376 83.6829C33.0559 82.4808 33.3158 81.2459 33.6153 79.9836C37.9809 80.993 42.8126 81.7193 47.9769 82.1571C50.9257 86.4955 54.0135 90.4832 57.1253 93.9749C56.4454 94.6612 55.7682 95.3145 55.0948 95.9302C50.96 99.7093 46.8165 102.391 43.1649 103.739ZM27.7923 73.3707C22.5958 71.5136 18.3043 69.0999 15.3627 66.4661C12.7195 64.0992 11.385 61.7494 11.385 59.8427C11.385 55.7852 17.1705 50.6097 26.8197 47.0921C27.9905 46.6652 29.2161 46.263 30.488 45.8851C31.8216 50.4209 33.5709 55.1632 35.682 59.9586C33.5436 64.8252 31.7694 69.643 30.4228 74.2319C29.516 73.9594 28.6375 73.6726 27.7923 73.3707ZM32.9453 36.6946C30.9425 25.9922 32.2726 17.9188 35.6198 15.8928C39.1851 13.7346 47.069 16.8118 55.3784 24.5264C55.9095 25.0195 56.4428 25.5356 56.9775 26.0696C53.8811 29.546 50.8215 33.5038 47.8989 37.8166C42.8868 38.3024 38.0891 39.0827 33.6779 40.1276C33.4006 38.9611 33.1549 37.815 32.9453 36.6946ZM78.9151 48.5634C77.8606 46.6589 76.778 44.7994 75.6744 42.9907C79.0746 43.4401 82.3325 44.0368 85.3919 44.7669C84.4734 47.8448 83.3285 51.063 81.981 54.362C81.0143 52.4431 79.9918 50.5082 78.9151 48.5634ZM60.1687 29.4716C62.2687 31.8504 64.3716 34.5062 66.44 37.3878C64.3557 37.2849 62.2455 37.2313 60.1179 37.2313C58.0104 37.2313 55.9158 37.2837 53.8443 37.3848C55.9148 34.53 58.036 31.8777 60.1687 29.4716ZM41.3023 48.5963C40.2489 50.5062 39.2454 52.4306 38.2939 54.3585C36.9682 51.0709 35.834 47.8381 34.9075 44.7165C37.9481 44.005 41.1906 43.4233 44.5692 42.9823C43.45 44.8077 42.3585 46.6809 41.3023 48.5959V48.5963ZM44.6665 77.0427C41.1758 76.6355 37.8846 76.0837 34.8447 75.3919C35.786 72.2146 36.9452 68.9127 38.2991 65.5543C39.253 67.4808 40.2605 69.406 41.3203 71.32H41.3205C42.4001 73.27 43.5185 75.18 44.6665 77.0427ZM60.2947 90.5495C58.1369 88.1152 55.9846 85.4224 53.8826 82.526C55.9232 82.6097 58.0036 82.6525 60.1179 82.6525C62.2901 82.6525 64.4374 82.6014 66.551 82.503C64.4758 85.4516 62.3804 88.1485 60.2947 90.5495ZM82.0244 65.3831C83.4488 68.7778 84.6496 72.0624 85.603 75.1856C82.513 75.9227 79.1769 76.5163 75.6618 76.9574C76.7682 75.1243 77.8602 73.2329 78.9333 71.2873C80.019 69.3189 81.0497 67.3476 82.0244 65.3831ZM74.9898 68.9091C73.3239 71.9294 71.6136 74.8125 69.8773 77.534C66.7149 77.7704 63.4478 77.8922 60.1179 77.8922C56.8015 77.8922 53.5755 77.7845 50.4691 77.5737C48.6628 74.8165 46.9154 71.9248 45.2601 68.9351H45.2605C43.6096 65.9536 42.0901 62.9469 40.7133 59.957C42.0897 56.9602 43.6052 53.9501 45.2466 50.9739L45.2462 50.9745C46.892 47.9904 48.6241 45.1128 50.4137 42.3728C53.5831 42.1223 56.8332 41.9916 60.1177 41.9916H60.1179C63.4173 41.9916 66.6715 42.1233 69.8399 42.376C71.6022 45.0959 73.3225 47.9642 74.9748 50.9487C76.6458 53.9667 78.1808 56.9568 79.569 59.8894C78.185 62.8723 76.6534 65.8925 74.9898 68.9091ZM84.3813 15.7512C87.9501 17.9031 89.3379 26.5815 87.0957 37.9616C86.9527 38.6878 86.7916 39.4274 86.6167 40.1769C82.1953 39.1102 77.3941 38.3165 72.3674 37.8234C69.4391 33.4631 66.4046 29.4992 63.3586 26.0674C64.1776 25.2437 64.9953 24.4582 65.8097 23.717C73.6775 16.5577 81.031 13.7311 84.3813 15.7512Z"
              fill="white"/>
        <path id="Vector_4"
              d="M60.1182 49.8923C65.3739 49.8923 69.6346 54.3472 69.6346 59.8428C69.6346 65.3381 65.3739 69.7932 60.1182 69.7932C54.8625 69.7932 50.6018 65.3381 50.6018 59.8428C50.6018 54.3472 54.8625 49.8923 60.1182 49.8923Z"
              fill="#53C1DE"/>
    </g>
    <g id="react-native">
        <g id="icon" clip-path="url(#clip0_1_1839)">
            <g id="Group">
                <path id="Vector"
                      d="M59.9999 63.6073C65.9173 63.6073 70.7142 58.8103 70.7142 52.893C70.7142 46.9757 65.9173 42.1787 59.9999 42.1787C54.0826 42.1787 49.2856 46.9757 49.2856 52.893C49.2856 58.8103 54.0826 63.6073 59.9999 63.6073Z"
                      fill="#F5DE19"/>
                <path id="Vector_2"
                      d="M60 77.4582C47.122 77.7697 34.2763 76.0338 21.9429 72.3153C16.2455 70.5093 10.9317 67.6642 6.27 63.9239C4.49113 62.6461 3.00974 60.9987 1.92747 59.0945C0.845197 57.1904 0.18767 55.0746 0 52.8925C0 45.8082 7.78286 38.8653 20.82 34.3225C33.4831 30.2971 46.714 28.3462 60 28.5453C73.1087 28.3622 86.1623 30.2778 98.6657 34.2196C104.153 35.9689 109.286 38.6764 113.829 42.2168C115.577 43.4349 117.036 45.0227 118.103 46.8676C119.169 48.7125 119.817 50.7694 120 52.8925C120 60.2553 111.3 67.7168 97.2857 72.3539C85.1911 75.9512 72.6164 77.6726 60 77.4582ZM60 33.671C47.2891 33.5011 34.6321 35.3558 22.5043 39.1653C10.5043 43.3525 5.12571 49.0782 5.12571 52.8796C5.12571 56.8568 10.9071 63.1096 23.6014 67.451C35.4003 70.9904 47.6855 72.638 60 72.3325C72.0703 72.5483 84.1025 70.9151 95.6786 67.4896C108.857 63.1225 114.857 56.861 114.857 52.8925C114.641 51.5306 114.145 50.2283 113.4 49.068C112.655 47.9076 111.677 46.9144 110.529 46.151C106.465 43.0102 101.879 40.6106 96.9814 39.0625C85.0201 35.3071 72.5356 33.4871 60 33.671Z"
                      fill="#F5DE19"/>
                <path id="Vector_3"
                      d="M35.6555 106.331C33.6562 106.377 31.6805 105.892 29.9298 104.925C23.7927 101.385 21.6669 91.1767 24.2426 77.6124C27.0826 64.6313 32.0032 52.1951 38.8141 40.7852C45.2029 29.3385 53.382 18.9877 63.0412 10.1252C67.2976 6.24538 72.2078 3.1504 77.5441 0.983791C79.4742 0.0792446 81.5797 -0.389648 83.7112 -0.389648C85.8428 -0.389648 87.9482 0.0792446 89.8784 0.983791C96.2598 4.66093 98.3727 15.9238 95.3941 30.3795C92.4665 42.6562 87.6736 54.4114 81.1827 65.2352C75.0187 76.5468 67.0971 86.8074 57.7141 95.6338C53.3032 99.6657 48.1841 102.846 42.6155 105.015C40.3862 105.843 38.033 106.287 35.6555 106.331ZM43.2541 43.3309C36.7574 54.2566 32.0412 66.1468 29.2827 78.5552C26.9127 91.0481 29.1884 98.5609 32.4969 100.472C35.9255 102.457 44.2484 100.575 54.3541 91.7467C63.3113 83.2907 70.8722 73.4689 76.7555 62.6466C82.9738 52.2989 87.5713 41.0601 90.3884 29.3209C93.1912 15.7138 90.7698 7.38236 87.3326 5.40236C86.0444 4.90876 84.6678 4.6878 83.2898 4.75346C81.9118 4.81911 80.5624 5.16995 79.3269 5.78379C74.577 7.74385 70.2101 10.5265 66.4269 14.0038C57.1984 22.4929 49.3856 32.4021 43.2841 43.3566L43.2541 43.3309Z"
                      fill="#F5DE19"/>
                <path id="Vector_4"
                      d="M84.326 106.387C78.5188 106.387 71.1431 102.872 63.4631 96.2682C53.6347 87.3251 45.3173 76.8513 38.8331 65.2525C32.1077 53.9997 27.226 41.7434 24.3731 28.9482C23.1359 23.3189 22.9066 17.5147 23.696 11.8053C23.8785 9.68738 24.5234 7.63523 25.5853 5.79362C26.6471 3.95201 28.1001 2.36577 29.8417 1.14678C36.2145 -2.54322 47.0274 1.24963 58.0631 11.0468C67.2371 19.7133 75.0276 29.7355 81.1631 40.7639C87.8844 51.754 92.8173 63.7419 95.7774 76.2796C97.0679 82.1155 97.267 88.1399 96.3645 94.0482C96.1498 96.2271 95.4665 98.3338 94.3613 100.224C93.2561 102.114 91.7553 103.743 89.9617 104.998C88.2395 105.953 86.2944 106.432 84.326 106.387ZM43.2688 62.6725C49.4892 73.7572 57.4343 83.7812 66.806 92.3682C76.4445 100.661 84.0903 102.444 87.3774 100.511C90.806 98.5182 93.3345 90.3839 90.7288 77.2225C87.874 65.2522 83.1426 53.8092 76.7103 43.3182C70.8552 32.763 63.4191 23.1662 54.6603 14.8611C44.2717 5.63821 35.846 3.57678 32.4131 5.56535C31.3432 6.43484 30.4651 7.51674 29.8344 8.74272C29.2037 9.9687 28.8341 11.3121 28.7488 12.6882C28.0674 17.78 28.2894 22.9521 29.4045 27.9668C32.1487 40.2031 36.8306 51.9223 43.2731 62.6811L43.2688 62.6725Z"
                      fill="#F5DE19"/>
            </g>
        </g>
        <defs>
            <clipPath id="clip0_1_1839">
                <rect width="120" height="106" fill="white"/>
            </clipPath>
        </defs>
    </g>

    <symbol id="redux" viewBox="0 0 120 120">
        <g id="icon" clip-path="url(#clip0_1_1816)">
            <path id="Vector"
                  d="M83.1473 82.6013C87.5756 82.1428 90.9352 78.3253 90.7823 73.7438C90.63 69.1627 86.812 65.4975 82.2309 65.4975H81.9258C77.1914 65.6503 73.5267 69.6207 73.6795 74.3546C73.8323 76.6453 74.7483 78.6305 76.1227 80.0049C70.9308 90.2368 62.9902 97.7194 51.0792 103.98C42.9858 108.256 34.5872 109.784 26.1886 108.715C19.3167 107.798 13.972 104.745 10.612 99.7046C5.72578 92.2219 5.26781 84.128 9.39093 76.0346C12.2925 70.2314 16.8731 65.9555 19.7747 63.8175C19.1639 61.8324 18.2475 58.4728 17.7895 56.0297C-4.35282 72.0643 -2.06204 93.7491 4.65703 103.98C9.69609 111.616 19.9275 116.35 31.2276 116.35C34.2816 116.35 37.3355 116.045 40.3898 115.282C59.9362 111.464 74.7487 99.8574 83.1473 82.6013ZM110.024 63.6652C98.4178 50.0738 81.315 42.5911 61.7686 42.5911H59.3255C57.9511 39.8424 55.0495 38.0096 51.8428 38.0096H51.5372C46.8037 38.1624 43.1391 42.1327 43.2914 46.8671C43.4442 51.4482 47.2617 55.1133 51.8428 55.1133H52.148C55.5075 54.9605 58.4091 52.8225 59.6306 49.921H62.3794C73.9852 49.921 84.9797 53.2805 94.9059 59.8472C102.541 64.8868 108.038 71.4535 111.092 79.3941C113.688 85.808 113.535 92.0691 110.787 97.4143C106.511 105.508 99.3342 109.936 89.8664 109.936C83.7581 109.936 77.9555 108.104 74.9011 106.729C73.2216 108.256 70.1672 110.7 68.0292 112.227C74.5959 115.281 81.315 116.961 87.7284 116.961C102.388 116.961 113.23 108.867 117.353 100.774C121.782 91.9163 121.476 76.6453 110.024 63.6652ZM32.4492 85.1968C32.602 89.7783 36.4195 93.443 41.0006 93.443H41.3062C46.0401 93.2907 49.7048 89.3199 49.552 84.586C49.3997 80.0044 45.5817 76.3397 41.0006 76.3397H40.6955C40.3898 76.3397 39.9314 76.3397 39.6267 76.4921C33.3656 66.1078 30.7697 54.8077 31.6861 42.5907C32.2964 33.428 35.3508 25.4869 40.6955 18.9202C45.1237 13.2699 53.6751 10.5211 59.4783 10.3688C75.6647 10.0632 82.5361 30.2208 82.9945 38.3147C84.9797 38.7727 88.3392 39.8419 90.63 40.6055C88.7972 15.8668 73.5267 3.03894 58.8675 3.03894C45.1237 3.03894 32.4492 12.9652 27.4097 27.6253C20.3855 47.1722 24.9666 65.9555 33.518 80.7685C32.7548 81.8372 32.2964 83.5172 32.4492 85.1972V85.1968Z"
                  fill="#764ABC"/>
        </g>
        <defs>
            <clipPath id="clip0_1_1816">
                <rect width="120" height="120" fill="white"/>
            </clipPath>
        </defs>
    </symbol>

    <g id="styled-components">
        <g id="icon" clip-path="url(#clip0_1_1803)">
            <g id="Group">
                <path id="Vector"
                      d="M68.7673 118.279C68.9473 117.872 69.4015 117.589 69.7315 117.246C74.7666 111.967 79.8446 106.735 84.8111 101.391C86.3653 99.9558 87.5662 98.1804 88.32 96.2036C89.0739 94.2269 89.3601 92.1026 89.1563 89.9968C89.0004 89.0951 88.7958 88.2025 88.5435 87.3229C87.1894 88.6084 85.9296 89.7783 84.6611 90.9567C82.6899 92.7908 80.7273 94.6334 78.739 96.4461C77.5665 97.6415 76.059 98.4531 74.4156 98.7737C72.7721 99.0943 71.0701 98.9087 69.5344 98.2416C67.9797 97.6705 66.627 96.6553 65.6443 95.3221C64.6616 93.9889 64.092 92.3965 64.0064 90.7425C63.9604 90.5297 63.8988 90.3206 63.8222 90.1168C62.3095 91.4024 60.8611 92.5851 59.4256 93.8021L29.5877 119.085C29.382 119.261 29.1591 119.479 28.9663 119.65H68.7459L68.6859 119.612C68.4716 119.462 68.583 118.673 68.7673 118.279Z"
                      fill="#FFCEBF"/>
                <path id="Vector_2"
                      d="M27.1436 118.279C27.4974 117.818 27.9245 117.418 28.4077 117.096L69.7 82.0642C72.5168 79.6731 75.3207 77.2691 78.1118 74.8522C78.4567 74.6118 78.727 74.2791 78.8918 73.8924C79.5594 70.9831 79.654 67.9717 79.1703 65.0263C78.7418 65.3262 78.5104 65.4548 78.3132 65.6648C74.9322 68.6901 71.5683 71.7412 68.1702 74.7494C67.0445 75.8824 65.5885 76.6292 64.0116 76.8825C62.4346 77.1359 60.818 76.8826 59.3941 76.1592C57.9414 75.4734 56.7256 74.3709 55.9014 72.992C55.0773 71.6131 54.682 70.0201 54.766 68.4159V67.0275C54.1447 67.4817 53.6905 67.7859 53.2662 68.1287C36.7396 81.3615 20.2159 94.5842 3.69496 107.797C2.94933 108.393 2.05801 109.721 1.08098 108.431C0.103957 107.141 1.59092 106.61 2.34083 106.01C19.953 91.8774 37.5738 77.7576 55.2031 63.6507C58.0742 61.3496 58.2628 60.3854 56.3944 56.7301L55.2803 57.7757C52.2249 60.6168 49.1353 63.4193 46.1271 66.3075C44.8931 67.4978 43.3476 68.3148 41.6691 68.6641C39.9906 69.0135 38.2476 68.8809 36.6412 68.2818C35.0348 67.6827 33.6306 66.6415 32.5908 65.2784C31.5509 63.9153 30.9178 62.2858 30.7646 60.5782C30.1947 61.0067 29.7019 61.3196 29.2348 61.6838L3.09503 81.9443C2.64419 82.3864 2.13005 82.7591 1.5695 83.0498C1.14643 83.1777 0.692134 83.155 0.283936 82.9856V119.671H27.0922C26.9925 119.451 26.9453 119.21 26.9542 118.969C26.9631 118.727 27.028 118.491 27.1436 118.279Z"
                      fill="#FFCEBF"/>
                <path id="Vector_3"
                      d="M99.5652 1.82096C98.8367 4.20782 98.1297 6.59897 97.4912 9.01154C96.9014 10.7164 96.97 12.5802 97.6836 14.2371C98.3971 15.8941 99.704 17.2246 101.348 17.9676C106.376 20.6107 112.042 21.798 117.709 21.3958V2.22806C117.646 1.80781 117.669 1.37914 117.777 0.968207C117.897 0.73576 118.049 0.520916 118.227 0.329712H99.5481C99.8352 0.663958 99.7366 1.25103 99.5652 1.82096Z"
                      fill="#FF6196"/>
                <path id="Vector_4"
                      d="M62.051 42.9976C61.9621 45.137 61.2137 47.1966 59.9084 48.894C55.2418 54.9179 49.8828 60.3719 43.9417 65.1435C42.9836 66.0304 41.7693 66.591 40.4728 66.745C39.1764 66.8989 37.8646 66.6383 36.7254 66.0005C35.5916 65.5161 34.6356 64.6925 33.9887 63.6428C33.3419 62.5932 33.036 61.369 33.113 60.1384C33.2502 58.627 33.8777 57.202 34.8999 56.0803C41.5434 49.7455 48.7414 44.019 56.4074 38.9695C56.9094 38.5758 57.5226 38.3499 58.1601 38.3237C58.7976 38.2976 59.4272 38.4725 59.9598 38.8238C60.6598 39.2585 61.2258 39.8786 61.5949 40.6153C61.9641 41.352 62.1219 42.1766 62.051 42.9976Z"
                      fill="#FF87AF"/>
                <path id="Vector_5"
                      d="M56.9126 68.97C56.8131 68.0228 56.9347 67.0654 57.2678 66.1731C57.6009 65.2809 58.1365 64.478 58.8324 63.8277C65.3372 57.8281 72.3163 52.3638 79.7013 47.4883C79.9241 47.3468 80.1298 47.2054 80.3741 47.0597C81.0192 46.594 81.8008 46.356 82.5959 46.3832C83.3911 46.4103 84.1546 46.7011 84.7664 47.2097C85.3584 47.7112 85.7772 48.3865 85.9634 49.1396C86.1496 49.8928 86.0936 50.6854 85.8034 51.4049C84.8691 54.5168 83.1448 57.3337 80.7983 59.5811C76.0329 64.2758 71.1753 68.8762 66.2286 73.3795C65.4836 74.1456 64.5051 74.6422 63.4469 74.7911C62.3888 74.9401 61.3111 74.7329 60.3836 74.2022C59.409 73.6958 58.5791 72.9499 57.9719 72.0347C57.3648 71.1194 57.0002 70.0648 56.9126 68.97Z"
                      fill="#FF87AF"/>
                <path id="Vector_6"
                      d="M87.8344 71.8015C86.6346 73.0871 85.4004 74.3126 84.2477 75.6282C83.9011 76.1367 83.6136 76.683 83.3907 77.2566C84.0249 77.4451 84.7662 77.9422 85.2804 77.7665C87.8987 76.888 90.4527 75.8339 93.3281 74.724C92.7024 76.1638 92.231 77.4922 91.5668 78.7092C88.8305 83.3078 85.4038 87.4587 81.4066 91.0164C79.8868 92.4819 78.3084 93.8832 76.6715 95.2201C75.8046 95.9395 74.7622 96.4157 73.6509 96.6001C72.5396 96.7844 71.3992 96.6702 70.3465 96.2692C69.2938 95.8681 68.3665 95.1947 67.6595 94.3176C66.9525 93.4406 66.4912 92.3916 66.3227 91.2778C66.254 90.6585 66.3087 90.0317 66.4838 89.4337C66.6589 88.8357 66.9507 88.2784 67.3426 87.7939C73.174 81.4614 79.8384 75.9503 87.1531 71.4115C87.242 71.3771 87.3363 71.3582 87.4316 71.3558L87.8344 71.8015Z"
                      fill="#FF87AF"/>
                <path id="Vector_7"
                      d="M97.6724 54.7335L105.004 22.1659L110.147 23.37L107.494 31.4305C105.017 38.9296 102.51 46.4287 100.093 53.9364C99.6221 55.3248 99.0051 55.5819 97.6724 54.7335Z"
                      fill="#FF6196"/>
                <path id="Vector_8"
                      d="M89.3857 73.8885C90.1614 70.9274 90.9327 68.1892 91.5841 65.421C92.2189 62.7364 93.4263 60.2207 95.1236 58.0461C96.1649 56.6791 97.3348 57.2234 98.5304 57.519C99.636 57.789 99.9145 58.5989 99.9616 59.6616C100.136 62.6005 99.241 65.5031 97.4419 67.8335C95.3002 70.4887 92.5317 72.5695 89.3857 73.8885Z"
                      fill="#FF6196"/>
                <path id="Vector_9"
                      d="M119.944 3.83936C120.008 2.88498 119.983 1.92674 119.871 0.976845C119.783 0.711516 119.607 0.483621 119.374 0.329779C119.184 0.175101 118.961 0.0652523 118.723 0.00838844C118.585 -0.0173228 118.393 0.124089 118.208 0.325493C118.03 0.516698 117.878 0.731542 117.758 0.96399C117.65 1.37492 117.627 1.80359 117.69 2.22384V21.3873C112.023 21.7895 106.357 20.6022 101.329 17.9591C99.685 17.2161 98.3781 15.8856 97.6646 14.2286C96.951 12.5717 96.8824 10.7079 97.4722 9.00304C98.1107 6.59046 98.8178 4.19932 99.5462 1.81246C99.7177 1.24253 99.8162 0.655454 99.5462 0.321208C99.3961 0.158494 99.1888 0.0602123 98.9677 0.0469556C98.6847 0.0500088 98.4105 0.146413 98.1878 0.321208C97.8674 0.512888 97.6121 0.796593 97.4551 1.1354C96.598 3.70652 95.8438 6.30336 95.1882 8.9259C94.9407 9.95936 94.874 11.0279 94.9911 12.0841C95.1569 13.9952 95.8676 15.8186 97.0389 17.3377C98.2102 18.8569 99.7928 20.0081 101.599 20.6545C102.409 20.993 102.884 21.3273 102.657 22.3943C102.344 23.7484 102.04 25.1026 101.732 26.461C99.632 35.6656 97.5436 44.8745 95.4667 54.0877C95.4082 54.4985 95.2275 54.8822 94.9482 55.189C93.5793 56.2771 92.4291 57.6148 91.5586 59.1314C90.4493 61.1327 89.6817 63.3052 89.2875 65.5592C89.2118 66.2782 88.952 66.9655 88.5331 67.5548C88.1143 68.144 87.5505 68.6153 86.8963 68.9231C85.1094 69.8273 83.4682 70.9971 81.4841 72.2141C81.6164 69.8282 81.5906 67.4361 81.407 65.0535C81.256 64.3206 81.288 63.5618 81.5003 62.8442C81.7126 62.1267 82.0985 61.4725 82.624 60.9397C85.2375 58.3506 87.1005 55.1015 88.0148 51.538C88.2878 50.712 88.3627 49.8333 88.2333 48.9729C88.104 48.1126 87.774 47.2948 87.27 46.5856C86.7661 45.8764 86.1023 45.2957 85.3325 44.8905C84.5626 44.4853 83.7081 44.267 82.8382 44.2531C81.4298 44.2374 80.047 44.6304 78.8573 45.3844C74.7683 48.1767 70.7504 51.0715 66.8073 54.0663C64.4633 55.8318 62.2564 57.7858 59.9852 59.637C59.8873 59.5319 59.8025 59.4154 59.7324 59.2899C59.689 58.9744 59.604 58.6661 59.4796 58.3729C57.5812 55.4418 58.8968 53.3121 60.958 51.1223C63.1053 48.8714 64.2919 45.8727 64.2661 42.7619C64.3327 41.1769 63.8363 39.6194 62.8649 38.3653C62.3474 37.7286 61.7096 37.2001 60.988 36.8097C59.9629 36.2487 58.7908 36.0145 57.6289 36.1386C56.467 36.2627 55.3708 36.7391 54.4873 37.5039L53.2917 38.361C50.5621 40.315 47.7981 42.2177 45.1713 44.3089C41.3364 47.3705 37.5841 50.5341 33.9183 53.7963C32.2042 55.309 30.953 57.3744 29.1746 58.78C19.9014 66.1034 10.5297 73.294 1.1922 80.5317C0.871132 80.7232 0.575909 80.9551 0.313735 81.2216C0.286745 81.2606 0.263774 81.3023 0.245172 81.3459C0.0480521 81.8044 -0.119071 82.5629 0.112331 82.8414C0.169054 82.9019 0.23761 82.95 0.313735 82.9828C0.721934 83.1523 1.17623 83.175 1.5993 83.0471C2.15985 82.7563 2.67399 82.3837 3.12483 81.9415L29.2646 61.6811C29.7317 61.3168 30.2245 60.9869 30.7944 60.5755C30.9476 62.2831 31.5807 63.9125 32.6206 65.2757C33.6604 66.6388 35.0646 67.68 36.671 68.2791C38.2774 68.8782 40.0204 69.0107 41.6989 68.6614C43.3774 68.312 44.9229 67.4951 46.1569 66.3048C49.1565 63.4166 52.2547 60.6141 55.3101 57.773L56.4242 56.7274C58.2926 60.3827 58.104 61.3468 55.2329 63.648C37.5893 77.7663 19.9585 91.8875 2.34064 106.012C1.59073 106.611 0.108046 107.156 1.08079 108.433C2.05353 109.71 2.94914 108.394 3.69476 107.798C20.2242 94.5972 36.7423 81.3787 53.2489 68.1432C53.6774 67.8003 54.1273 67.4961 54.7487 67.0419V68.4303C54.6647 70.0345 55.0599 71.6275 55.8841 73.0064C56.7082 74.3853 57.924 75.4879 59.3767 76.1736C60.8007 76.897 62.4173 77.1503 63.9942 76.897C65.5711 76.6436 67.0271 75.8968 68.1528 74.7638C71.551 71.7642 74.9149 68.7045 78.2959 65.6792C78.5102 65.4863 78.7587 65.3406 79.153 65.0407C79.6367 67.9861 79.542 70.9975 78.8744 73.9068C78.7096 74.2936 78.4394 74.6262 78.0945 74.8667C75.3005 77.2807 72.4966 79.6847 69.6826 82.0787L28.4075 117.115C27.9243 117.437 27.4972 117.836 27.1434 118.297C27.0305 118.507 26.9672 118.741 26.9582 118.979C26.9493 119.217 26.9951 119.455 27.092 119.673C27.2856 119.818 27.5094 119.917 27.7468 119.964C27.9842 120.011 28.2291 120.004 28.4633 119.943C28.648 119.889 28.8181 119.794 28.9603 119.664C29.1746 119.493 29.3889 119.274 29.5817 119.099L59.4196 93.8158C60.8551 92.5988 62.3035 91.399 63.8162 90.1306C63.8928 90.3343 63.9544 90.5434 64.0005 90.7562C64.0861 92.4102 64.6556 94.0027 65.6383 95.3358C66.6211 96.669 67.9737 97.6842 69.5284 98.2553C71.0641 98.9225 72.7662 99.108 74.4096 98.7874C76.053 98.4669 77.5606 97.6552 78.733 96.4598C80.7213 94.6472 82.684 92.8045 84.6552 90.9705C85.9407 89.792 87.1834 88.6093 88.5376 87.3366C88.7898 88.2162 88.9944 89.1089 89.1503 90.0106C89.3473 92.1094 89.0578 94.2253 88.3042 96.1941C87.5506 98.1628 86.3532 99.9313 84.8051 101.362C79.8386 106.71 74.7606 111.942 69.7255 117.217C69.3955 117.56 68.9413 117.843 68.7613 118.25C68.5813 118.657 68.4657 119.454 68.6799 119.626L68.7399 119.664C69.1892 119.883 69.6945 119.959 70.1883 119.883C70.3267 119.854 70.45 119.777 70.5354 119.664C70.6554 119.54 70.7711 119.386 70.8868 119.27C74.9663 115.053 79.0672 110.858 83.1168 106.611C84.7513 104.955 86.288 103.205 87.7191 101.371C89.5851 99.3049 90.8224 96.7492 91.2855 94.0042C91.7486 91.2591 91.4181 88.439 90.3331 85.8754C90.2164 85.3037 90.3304 84.7092 90.6502 84.2213C90.9287 83.7413 91.2372 83.2742 91.5543 82.8114C92.569 81.494 93.4141 80.0544 94.0698 78.5262C95.3368 74.7758 97.2817 71.2898 99.8076 68.2417C100.969 66.7695 101.768 65.0448 102.14 63.207C102.512 61.3692 102.447 59.4696 101.95 57.6616C101.775 56.9741 101.775 56.2535 101.95 55.5661C104.119 48.8512 106.351 42.1577 108.562 35.4599L111.519 26.4867L112.432 23.7142C114.377 23.7142 116.211 23.6756 118.037 23.7142C119.554 23.757 120.017 23.0457 120 21.5715C119.91 15.658 119.944 9.74866 119.944 3.83936ZM43.9371 65.1435C42.9791 66.0304 41.7647 66.591 40.4683 66.745C39.1719 66.8989 37.86 66.6383 36.7208 66.0006C35.587 65.5162 34.631 64.6925 33.9842 63.6429C33.3373 62.5932 33.0314 61.369 33.1084 60.1384C33.2457 58.6271 33.8732 57.202 34.8953 56.0803C41.5388 49.7455 48.7368 44.019 56.4028 38.9695C56.8212 38.6737 57.2972 38.4693 57.7998 38.3696C58.1369 38.3074 58.4825 38.3074 58.8196 38.3696C59.2234 38.4482 59.6086 38.6023 59.9552 38.8238C60.656 39.2588 61.2224 39.8796 61.5916 40.6171C61.9607 41.3547 62.1182 42.1802 62.0464 43.0019C61.9576 45.1413 61.2092 47.2009 59.9038 48.8983C55.237 54.9207 49.878 60.3733 43.9371 65.1435ZM66.2202 73.4097C65.4752 74.1758 64.4966 74.6724 63.4385 74.8213C62.3803 74.9703 61.3027 74.7631 60.3752 74.2324C59.3988 73.7249 58.5678 72.977 57.9605 72.0593C57.3533 71.1416 56.9897 70.0844 56.9042 68.9874C56.8047 68.0401 56.9263 67.0828 57.2594 66.1905C57.5925 65.2982 58.1281 64.4954 58.8239 63.8451C65.3288 57.8454 72.3078 52.3811 79.6929 47.5056C79.9157 47.3642 80.1214 47.2228 80.3657 47.0771C81.0107 46.6114 81.7923 46.3734 82.5875 46.4005C83.3826 46.4277 84.1462 46.7185 84.758 47.2271C85.35 47.7285 85.7688 48.4038 85.955 49.157C86.1412 49.9101 86.0852 50.7028 85.795 51.4223C84.8607 54.5342 83.1364 57.351 80.7899 59.5985C76.0633 64.3208 71.1482 68.8674 66.2288 73.3925L66.2202 73.4097ZM91.5501 78.7276C88.8175 83.319 85.3967 87.4638 81.407 91.0176C79.8872 92.4831 78.3088 93.8844 76.6718 95.2214C75.8049 95.9408 74.7625 96.417 73.6512 96.6013C72.5399 96.7856 71.3996 96.6714 70.3469 96.2704C69.2942 95.8694 68.3669 95.1959 67.6599 94.3189C66.9529 93.4419 66.4915 92.3928 66.323 91.279C66.2543 90.6597 66.3091 90.0329 66.4842 89.435C66.6592 88.837 66.9511 88.2796 67.3429 87.7951C73.1743 81.4627 79.8387 75.9515 87.1534 71.4128C87.2424 71.3783 87.3366 71.3594 87.432 71.3571L87.8605 71.7856C86.6606 73.0712 85.4265 74.2967 84.2738 75.6123C83.9272 76.1208 83.6396 76.6671 83.4167 77.2407C84.0509 77.4292 84.7923 77.9263 85.3065 77.7506C87.3763 77.0564 89.4117 76.2508 91.5929 75.3937L93.3541 74.7081C92.6942 76.1651 92.2228 77.4935 91.5586 78.7105L91.5501 78.7276ZM97.4336 67.8646C95.8352 69.8996 93.8317 71.5806 91.5501 72.8012C90.8444 73.1954 90.1202 73.564 89.3775 73.9068C90.1402 70.9885 90.903 68.2846 91.5501 65.5506L91.5758 65.4392C92.2106 62.7546 93.418 60.2389 95.1153 58.0644C96.1566 56.6974 97.3265 57.2416 98.5221 57.5373C99.6277 57.8073 99.9062 58.6172 99.9533 59.6799C100.129 62.6162 99.2372 65.5171 97.4422 67.8475L97.4336 67.8646ZM107.461 31.4404C104.984 38.9395 102.477 46.4386 100.06 53.9463C99.6062 55.3561 98.9892 55.6132 97.6565 54.7648L104.011 26.5124L104.988 22.1758L110.131 23.3799L109.098 26.5124L107.461 31.4404Z"
                      fill="#1F2626"/>
            </g>
        </g>
        <defs>
            <clipPath id="clip0_1_1803">
                <rect width="120" height="120" fill="white"/>
            </clipPath>
        </defs>
    </g>

    <g id="tailwind">
        <path d="M36.8438 56.0844C40.6646 40.801 50.2167 33.1594 65.5 33.1594C88.425 33.1594 91.2906 50.3531 102.753 53.2187C110.395 55.1292 117.081 52.2635 122.812 44.6219C118.992 59.9052 109.44 67.5469 94.1562 67.5469C71.2313 67.5469 68.3656 50.3531 56.9031 47.4875C49.2615 45.5771 42.575 48.4427 36.8438 56.0844ZM8.1875 90.4719C12.0083 75.1885 21.5604 67.5469 36.8438 67.5469C59.7687 67.5469 62.6344 84.7406 74.0969 87.6062C81.7385 89.5167 88.425 86.651 94.1562 79.0094C90.3354 94.2927 80.7833 101.934 65.5 101.934C42.575 101.934 39.7094 84.7406 28.2469 81.875C20.6052 79.9646 13.9187 82.8302 8.1875 90.4719Z"
              fill="#44A8B3"/>
    </g>

    <g id="bootstrap">
        <g clip-path="url(#clip0_2_5691)">
            <path d="M0 75.7821C0 81.9781 5.08028 87 11.3468 87H76.6528C82.9204 87 88 81.9774 88 75.7821V11.2182C88 5.02187 82.9197 0 76.6532 0H11.3472C5.07959 0 0 5.02255 0 11.2179V75.7818V75.7821Z"
                  fill="#563D7C"/>
            <path d="M36.4919 38.4832V26.1629H47.4613C48.5063 26.1629 49.5135 26.2489 50.4836 26.4212C51.4536 26.5931 52.312 26.9003 53.0583 27.3431C53.8042 27.786 54.4013 28.4007 54.8492 29.1875C55.2968 29.9746 55.5209 30.9829 55.5209 32.2121C55.5209 34.4255 54.8492 36.0241 53.5058 37.0076C52.1628 37.9915 50.4464 38.4832 48.3568 38.4832H36.4919ZM24.7759 17.1621V69.8379H50.5956C52.9837 69.8379 55.3095 69.5429 57.5731 68.9526C59.8367 68.3623 61.8514 67.4525 63.6176 66.223C65.3834 64.9934 66.789 63.407 67.8337 61.4645C68.8787 59.5216 69.4008 57.2222 69.4008 54.5663C69.4008 51.2709 68.5923 48.4553 66.9757 46.1192C65.3587 43.7828 62.9084 42.1474 59.6249 41.2129C62.0129 40.0819 63.8166 38.6307 65.0355 36.8601C66.2541 35.0895 66.8636 32.8765 66.8636 30.2203C66.8636 27.7612 66.4532 25.6956 65.6323 24.0232C64.8114 22.3512 63.6547 21.0108 62.1621 20.0025C60.6699 18.9942 58.879 18.2686 56.7893 17.8262C54.7 17.3833 52.3866 17.1621 49.8493 17.1621H24.7759ZM36.4919 60.8371V46.3771H49.2523C51.7895 46.3771 53.8293 46.9548 55.3717 48.111C56.9138 49.2668 57.6851 51.1971 57.6851 53.9023C57.6851 55.2797 57.4486 56.4107 56.976 57.296C56.5033 58.1813 55.8691 58.8823 55.073 59.3986C54.2772 59.9151 53.3566 60.2839 52.312 60.5054C51.267 60.7263 50.1728 60.8371 49.0285 60.8371H36.4919Z"
                  fill="white"/>
        </g>
        <defs>
            <clipPath id="clip0_2_5691">
                <rect width="88" height="87" fill="white"/>
            </clipPath>
        </defs>
    </g>

    <g id="sass">
        <g clip-path="url(#clip0_2_5689)">
            <path d="M100.673 50.0766C96.603 50.0975 93.0653 51.0694 90.1035 52.5063C89.0162 50.3721 87.9295 48.4708 87.738 47.076C87.5246 45.4493 87.2691 44.4561 87.5246 42.5122C87.7805 40.5683 88.9312 37.8001 88.9098 37.589C88.8887 37.3778 88.6538 36.3846 86.3098 36.3637C83.9658 36.3424 81.9413 36.8073 81.7068 37.42C81.4724 38.0326 81.025 39.4273 80.7266 40.8637C80.3216 42.9771 76.0386 50.5198 73.5881 54.471C72.7993 52.9291 72.1174 51.5765 71.968 50.499C71.755 48.8722 71.4991 47.879 71.755 45.9351C72.0109 43.9912 73.1617 41.2235 73.1402 41.0119C73.1187 40.8007 72.8843 39.8075 70.5403 39.7866C68.1958 39.7653 66.1713 40.2302 65.9373 40.8429C65.7029 41.4559 65.4469 42.8923 64.957 44.2871C64.4667 45.6818 58.7769 58.275 57.2852 61.5285C56.6824 62.8453 56.0501 64.1487 55.3886 65.4376C55.3886 65.4376 55.3672 65.501 55.3032 65.6066C55.0954 66.0107 54.8824 66.4122 54.6643 66.811V66.8318C54.3444 67.4028 54.0035 67.9307 53.833 67.9307C53.705 67.9307 53.4706 66.4095 53.8755 64.3387C54.7278 59.9652 56.7524 53.1615 56.7313 52.9291C56.7313 52.8022 57.1148 51.6191 55.4101 51.006C53.7475 50.3934 53.1511 51.4075 53.0017 51.4075C52.8527 51.4075 52.7458 51.7668 52.7458 51.7668C52.7458 51.7668 54.6003 44.118 49.2085 44.118C45.8417 44.118 41.1958 47.7734 38.8943 51.0694C36.278 52.4811 33.6639 53.8968 31.052 55.3166C29.7953 56.0139 28.4951 56.7113 27.2803 57.3661C27.1949 57.2818 27.1099 57.1758 27.0244 57.0915C20.5034 50.1822 8.442 45.3012 8.95339 36.0257C9.14534 32.6449 10.3171 23.7705 32.1178 12.9947C50.0608 4.22583 64.3392 6.65549 66.8111 12.0436C70.3484 19.7349 59.1608 34.0183 40.6204 36.0887C33.5455 36.8708 29.8373 34.1661 28.9 33.152C27.9197 32.0953 27.7703 32.0318 27.4079 32.2435C26.8115 32.5606 27.1949 33.5113 27.4079 34.0605C27.9622 35.4969 30.2422 38.0326 34.0994 39.2796C37.5091 40.378 45.7988 40.991 55.8361 37.1454C67.0666 32.8348 75.8466 20.8546 73.2682 10.8183C70.6893 0.633908 53.641 -2.72556 37.5091 2.95799C27.9197 6.33921 17.52 11.6634 10.0402 18.594C1.15363 26.834 -0.253039 33.997 0.322334 36.9976C2.38984 47.6465 17.2006 54.5771 23.1248 59.7114C22.8263 59.8804 22.5489 60.0286 22.3149 60.1555C19.3526 61.6132 8.05811 67.4658 5.24523 73.6568C2.04891 80.6716 5.75708 85.7009 8.20756 86.3765C15.8154 88.4686 23.6362 84.7076 27.8342 78.4953C32.0323 72.2834 31.5209 64.2119 29.5818 60.5144C29.5604 60.4722 29.5393 60.4296 29.4964 60.3875C30.2637 59.9439 31.052 59.479 31.8194 59.0354C33.2296 58.2088 34.6578 57.4126 36.1029 56.6474C35.3781 58.6126 34.8452 60.958 34.5897 64.3387C34.2698 68.3113 35.9105 73.4665 38.063 75.4947C39.0223 76.3828 40.1515 76.4037 40.8763 76.4037C43.3908 76.4037 44.5205 74.3329 45.7778 71.8819C47.3119 68.8818 48.6971 65.3954 48.6971 65.3954C48.6971 65.3954 46.971 74.8191 51.6595 74.8191C53.3641 74.8191 55.0902 72.6214 55.8575 71.5017V71.5226C55.8575 71.5226 55.9 71.4592 55.9855 71.3114C56.156 71.0368 56.2624 70.8674 56.2624 70.8674V70.8257C56.9443 69.6421 58.4789 66.9587 60.7589 62.5004C63.6998 56.7534 66.5342 49.5696 66.5342 49.5696C66.5342 49.5696 66.7901 51.3232 67.6634 54.239C68.1753 55.9505 69.2401 57.831 70.0929 59.648C69.411 60.5991 68.9846 61.127 68.9846 61.127L69.0061 61.1483C68.4518 61.8665 67.8554 62.6481 67.1945 63.4094C64.8716 66.1558 62.1016 69.3045 61.7178 70.2126C61.2699 71.2901 61.3768 72.0722 62.2296 72.7062C62.8475 73.1711 63.9553 73.234 65.085 73.1711C67.1735 73.0229 68.6437 72.5158 69.3681 72.1991C70.4978 71.7976 71.819 71.1846 73.0548 70.276C75.3352 68.6067 76.72 66.2192 76.5925 63.0714C76.5285 61.3386 75.9531 59.6059 75.2498 57.9787C75.4632 57.6833 75.6547 57.3874 75.8681 57.0915C79.4693 51.8724 82.2612 46.1462 82.2612 46.1462C82.2612 46.1462 82.5171 47.8998 83.3905 50.8161C83.8168 52.2951 84.6907 53.901 85.4575 55.4643C82.0693 58.1903 79.9807 61.3594 79.2349 63.4302C77.8926 67.2759 78.9365 69.0082 80.9185 69.4097C81.8133 69.6 83.092 69.1772 84.0298 68.7757C85.2231 68.3956 86.6297 67.7408 87.9724 66.7684C90.2529 65.0995 92.4474 62.775 92.3195 59.6272C92.2555 58.1903 91.8721 56.7743 91.3392 55.4009C94.2161 54.2182 97.9242 53.563 102.655 54.1122C112.799 55.2953 114.802 61.5706 114.418 64.2123C114.035 66.8531 111.904 68.29 111.201 68.7336C110.497 69.1777 110.263 69.3254 110.327 69.6421C110.412 70.107 110.753 70.0862 111.35 70.0014C112.181 69.8537 116.678 67.8672 116.869 63.0075C117.189 56.7956 111.222 50.0132 100.673 50.0766ZM22.4214 76.2346C19.0542 79.8687 14.3662 81.2421 12.3417 80.0803C10.1681 78.8333 11.0204 73.4665 15.1545 69.6213C17.669 67.2759 20.9083 65.0991 23.0608 63.7683C23.5507 63.4724 24.2755 63.0501 25.1493 62.5217C25.2983 62.437 25.3838 62.3948 25.3838 62.3948L25.8952 62.0776C27.4078 67.5713 25.9591 72.4103 22.4214 76.2346ZM46.9285 59.7114C45.7563 62.543 43.3058 69.7903 41.8141 69.3888C40.5354 69.0508 39.7466 63.5571 41.5582 58.1269C42.4745 55.4009 44.4136 52.147 45.5433 50.8796C47.3759 48.8509 49.4005 48.1744 49.8904 48.9991C50.5087 50.0766 47.6529 57.9365 46.9285 59.7114ZM67.152 69.3041C66.6617 69.5578 66.1932 69.7269 65.9798 69.6C65.8308 69.5153 66.1932 69.1772 66.1932 69.1772C66.1932 69.1772 68.7292 66.473 69.7305 65.2473C70.3063 64.5291 70.9877 63.684 71.7125 62.7329V63.0075C71.7125 66.2405 68.5583 68.4169 67.1516 69.3041H67.152ZM82.7511 65.7756C82.3887 65.5219 82.4527 64.6768 83.6674 62.0355C84.1363 61.0001 85.2441 59.2678 87.1411 57.5985C87.3541 58.2746 87.5035 58.9298 87.4821 59.5424C87.4606 63.6205 84.5202 65.1417 82.7511 65.7756Z"
                  fill="#CD6799"/>
        </g>
        <defs>
            <clipPath id="clip0_2_5689">
                <rect width="117" height="87" fill="white"/>
            </clipPath>
        </defs>
    </g>

    <g id="docker">
        <path id="Vector"
              d="M117.523 49.7464C114.821 47.8714 108.628 47.1683 103.787 48.1058C103.224 43.4183 100.634 39.3172 96.1307 35.6844L93.5413 33.8094L91.7394 36.5047C89.488 40.0203 88.3621 44.9422 88.6996 49.6297C88.8121 51.2698 89.375 54.1995 91.0639 56.7776C89.488 57.7151 86.2227 58.887 81.9444 58.887H0.541279L0.316279 59.8245C-0.472159 64.5116 -0.472159 79.1595 8.76034 90.4091C15.741 98.9633 26.0994 103.299 39.7227 103.299C69.2211 103.299 91.0639 89.1195 101.31 63.4569C105.363 63.5741 114.033 63.4569 118.424 54.6678C118.536 54.4334 118.761 53.9647 119.549 52.2073L120 51.2698L117.523 49.7464ZM65.6183 16.7009H53.2339V28.4192H65.6183V16.7009ZM65.6183 30.763H53.2339V42.4812H65.6183V30.7625V30.763ZM50.9816 30.763H38.5972V42.4812H50.9816V30.7625V30.763ZM36.3449 30.763H23.96V42.4812H36.3449V30.7625V30.763ZM21.7082 44.825H9.32331V56.5433H21.7077V44.8245L21.7082 44.825ZM36.3449 44.825H23.96V56.5433H36.3449V44.8245V44.825ZM50.9816 44.825H38.5972V56.5433H50.9816V44.8245V44.825ZM65.6188 44.825H53.2335V56.5433H65.6188V44.8245V44.825ZM80.2555 44.825H67.8702V56.5433H80.2555V44.8245V44.825Z"
              fill="#2396ED"/>
    </g>


    <g id="express">
        <path id="expressjs"
              d="M37.2184 73.3891V47.1349H38.6425V51.2647C38.8106 51.0816 38.9659 50.8871 39.1073 50.6826C40.2967 48.2149 42.8053 46.6576 45.5441 46.6883C48.791 46.5915 51.4295 47.7934 52.98 50.6826C53.9667 52.4774 54.5097 54.4823 54.5636 56.5298C54.6175 58.5773 54.1808 60.6079 53.2899 62.4522C51.8453 65.69 48.2772 67.2998 44.4572 66.7085C43.2684 66.6074 42.1239 66.2102 41.1281 65.5531C40.1322 64.896 39.3169 63.9999 38.7564 62.9467V73.388L37.2184 73.3891ZM38.6425 56.4221L38.9615 59.505C39.5243 63.0139 41.5988 65.0873 44.856 65.477C46.3856 65.7284 47.955 65.4417 49.2968 64.6655C50.6386 63.8894 51.6698 62.672 52.2144 61.2207C53.4813 58.2017 53.3879 54.7839 51.9638 51.8355C51.3825 50.5345 50.3935 49.4582 49.1464 48.769C47.8992 48.0799 46.4616 47.8154 45.0508 48.0156C43.7266 48.1119 42.4652 48.6183 41.4419 49.4643C40.4187 50.3104 39.6843 51.4541 39.3408 52.7366C39.0376 53.9503 38.8044 55.1805 38.6425 56.421V56.4221ZM83.6409 59.9903C83.4249 61.8388 82.5449 63.546 81.1646 64.7943C79.7842 66.0427 77.9974 66.7472 76.1366 66.7768C70.1646 67.0776 67.362 63.1119 66.9166 58.5355C66.6068 56.0502 67.0102 53.5282 68.0797 51.2636C68.8241 49.7101 70.0438 48.4339 71.5619 47.6199C73.0801 46.8059 74.8181 46.4964 76.5239 46.7362C78.1456 46.874 79.6829 47.5184 80.9182 48.5781C82.1535 49.6377 83.0243 51.0591 83.4073 52.6409C83.7107 54.0819 83.934 55.5386 84.0761 57.0043H68.3919C68.1014 61.1535 70.3309 64.4892 73.4912 65.2935C77.4273 66.2619 80.7916 64.5564 82.0129 60.814C82.284 59.8536 82.7785 59.718 83.6511 59.9903H83.6409ZM68.3805 55.6759H82.4093C82.3216 51.2556 79.5692 48.0429 75.8358 48.0064C71.6206 47.9381 68.5639 51.0221 68.3805 55.6759ZM86.5403 60.0871H87.9154C87.9659 61.1002 88.2949 62.0797 88.8661 62.9178C89.4373 63.756 90.2287 64.4204 91.1531 64.8378C92.3139 65.3602 93.5775 65.6141 94.8499 65.5805C96.1224 65.547 97.3708 65.2269 98.5025 64.6442C99.1193 64.3664 99.6361 63.906 99.9828 63.3251C100.33 62.7442 100.49 62.0709 100.441 61.3961C100.477 60.7454 100.299 60.1007 99.9354 59.56C99.5715 59.0193 99.0413 58.612 98.425 58.3999C96.9121 57.8371 95.3034 57.5272 93.762 57.0328C92.1581 56.5761 90.5897 56.0027 89.0694 55.3171C86.5858 54.1049 86.432 49.3838 89.2437 47.8891C90.6834 47.0767 92.3036 46.6377 93.9565 46.6123C95.6094 46.5868 97.2424 46.9756 98.7064 47.7433C100.522 48.7458 101.526 50.7703 101.228 52.8244H100.048C100.048 52.7674 99.9414 52.7173 99.9414 52.6592C99.7955 48.8996 96.6352 47.7239 93.2425 48.0543C92.2172 48.1682 91.2454 48.4781 90.334 48.9361C89.7861 49.1863 89.3296 49.6006 89.0275 50.1217C88.7254 50.6427 88.5928 51.2448 88.6479 51.8446C88.649 52.4448 88.8361 53.03 89.1833 53.5196C89.5305 54.0092 90.0209 54.3792 90.5869 54.5788C92.0679 55.1222 93.6401 55.4709 95.1724 55.8969L98.875 56.8653C99.7166 57.1415 100.454 57.6667 100.991 58.3714C101.528 59.076 101.838 59.927 101.88 60.8117C102.177 62.7997 101.163 64.7535 99.3695 65.6592C96.1317 67.4912 90.7988 67.007 88.4235 64.6909C87.2079 63.4684 86.53 61.8085 86.5437 60.086L86.5403 60.0871ZM119.328 52.8255H118.038C118.038 52.6512 117.97 52.4837 117.951 52.3504C117.93 51.3837 117.578 50.4535 116.953 49.7157C116.328 48.9779 115.468 48.4774 114.518 48.2981C112.726 47.784 110.814 47.8761 109.079 48.5601C108.393 48.7564 107.79 49.1694 107.358 49.7374C106.926 50.3055 106.69 50.9979 106.685 51.7113C106.66 52.4118 106.878 53.0993 107.302 53.6575C107.726 54.2157 108.33 54.6103 109.011 54.7748L114.906 56.2877C115.543 56.4406 116.171 56.6316 116.785 56.8596C118.665 57.5432 119.941 59.2885 119.998 61.2833C120.026 62.2598 119.758 63.2219 119.23 64.0434C118.701 64.8648 117.936 65.5071 117.036 65.8859C115.668 66.5074 114.185 66.8362 112.682 66.8513C111.18 66.8664 109.691 66.5675 108.31 65.9737C107.175 65.4842 106.217 64.6587 105.565 63.6083C104.914 62.5579 104.599 61.333 104.665 60.0985H105.925C106.399 62.3827 107.967 64.2853 110.119 65.1853C112.272 66.0853 114.729 65.8643 116.686 64.5974C117.273 64.2921 117.761 63.8248 118.091 63.251C118.421 62.6772 118.579 62.0208 118.548 61.3597C118.577 60.7084 118.393 60.0655 118.024 59.5282C117.654 58.991 117.12 58.5889 116.502 58.3828C114.989 57.82 113.38 57.5204 111.839 57.0157C110.226 56.5661 108.648 55.9991 107.118 55.3193C104.693 54.1265 104.5 49.4442 107.263 47.9506C108.721 47.1041 110.373 46.6494 112.058 46.6306C113.743 46.6118 115.405 47.0297 116.881 47.8435C117.725 48.3474 118.405 49.0858 118.837 49.9689C119.269 50.8521 119.435 51.8418 119.314 52.8175L119.328 52.8255ZM34.875 66.3029C34.3673 66.4949 33.807 66.4944 33.2997 66.3015C32.7924 66.1086 32.3732 65.7367 32.1214 65.2559L27.1086 58.3236L26.3818 57.3552L20.5647 65.2662C20.3276 65.7263 19.9312 66.0843 19.4494 66.2734C18.9676 66.4625 18.4335 66.4698 17.9467 66.2938L25.4408 56.2399L18.4685 47.1554C19.5029 46.7817 20.6559 47.1873 21.2312 48.1238L26.4262 55.1416L31.652 48.1511C31.8908 47.6989 32.2876 47.3503 32.7667 47.1716C33.2458 46.9928 33.774 46.9964 34.2506 47.1816L31.5449 50.7714L27.8799 55.5415C27.7782 55.6323 27.6968 55.7436 27.6411 55.8681C27.5854 55.9926 27.5565 56.1274 27.5565 56.2638C27.5565 56.4002 27.5854 56.535 27.6411 56.6595C27.6968 56.7839 27.7782 56.8952 27.8799 56.9861L34.8601 66.3029H34.875ZM66.6944 47.0586V48.4257C65.7138 48.3614 64.7306 48.5034 63.8083 48.8425C62.886 49.1817 62.0451 49.7105 61.3398 50.3947C60.6345 51.079 60.0805 51.9036 59.7135 52.8152C59.3466 53.7268 59.1749 54.7052 59.2095 55.6873C59.2095 58.8803 59.2095 62.0732 59.2095 65.2662V66.3519H57.823V47.144H59.1901V51.0802C60.8671 48.2092 63.4555 47.144 66.7035 47.0666L66.6944 47.0586ZM0.00227889 56.1145L0.612921 53.0989C2.28991 47.1361 9.12545 44.6547 13.8283 48.3482C16.5819 50.5105 17.2689 53.574 17.1344 57.0259H1.62116C1.37053 63.1916 5.81933 66.9147 11.5099 65.0144C13.3851 64.3309 14.7967 62.7724 15.2615 60.8356C15.5623 59.8673 16.059 59.7009 16.9681 59.9812C16.8165 61.1616 16.3992 62.2923 15.7476 63.2882C15.096 64.2841 14.2271 65.1193 13.2063 65.731C11.5197 66.6534 9.58459 67.0189 7.67775 66.7752C5.77091 66.5315 3.98995 65.6911 2.58953 64.3742C1.2042 62.8168 0.367981 60.8482 0.205067 58.769C0.205067 58.4272 0.0911409 58.1082 0.0113928 57.8006C0.00379779 57.2257 0 56.6637 0 56.1145H0.00227889ZM1.64053 55.6976H15.6693C15.5816 51.2283 12.7608 48.0577 8.99899 48.0281C4.81108 47.9711 1.81484 51.0722 1.63028 55.6782L1.64053 55.6976Z"
              fill="#1F2626"/>
    </g>

    <g id="jest">
        <path id="Vector"
              d="M107.525 59.083C107.525 52.9145 102.524 47.9135 96.3553 47.9135C95.9581 47.9135 95.567 47.9348 95.1809 47.9756L110.522 2.72803H45.327L60.647 47.936C60.421 47.9218 60.1945 47.9144 59.968 47.9139C53.7995 47.9139 48.7986 52.914 48.7986 59.0834C48.7986 64.0695 52.0665 68.2911 56.5764 69.7273C54.1945 73.8533 51.197 77.5697 47.7939 80.7807C43.1662 85.146 37.8702 88.4565 32.1422 90.496C25.3223 86.9926 22.102 79.2012 25.0077 72.3698C25.3359 71.5981 25.6709 70.8162 25.9911 70.0377C30.9317 68.8846 34.6137 64.4555 34.6137 59.1633C34.6137 52.9944 29.6128 47.9939 23.4439 47.9939C17.2749 47.9939 12.2744 52.9944 12.2744 59.1633C12.2744 62.9461 14.1562 66.2876 17.0334 68.3081C14.2689 74.6024 10.2051 81.1901 8.93887 88.8251C7.4214 97.9749 8.93377 107.688 16.8476 113.173C35.2783 125.947 55.2847 105.254 76.3786 100.052C84.0234 98.1671 92.4151 98.4707 99.1504 94.5701C104.208 91.6406 107.543 86.7855 108.489 81.3351C109.424 75.9507 108.061 70.5896 104.927 66.2425C106.608 64.2361 107.528 61.7009 107.525 59.083Z"
              fill="#99425B"/>
        <path id="Vector_2"
              d="M105.802 80.8682C104.98 85.6005 102.058 89.7336 97.7837 92.2094C93.7993 94.5169 89.025 95.2057 83.9696 95.9344C81.2617 96.3247 78.4614 96.7291 75.7258 97.4034C68.4927 99.187 61.4866 102.667 54.7118 106.032C41.1528 112.767 29.4434 118.583 18.4023 110.931C10.3146 105.325 10.6879 94.9544 11.6301 89.2715C12.5034 84.006 14.8644 79.1569 17.1472 74.4676C17.5361 73.6706 17.9219 72.8721 18.3045 72.0721C19.4553 72.5321 20.6627 72.835 21.8943 72.9726C19.5703 80.6424 23.2251 88.9819 30.8958 92.9225L31.946 93.462L33.0574 93.0662C39.1217 90.9063 44.7099 87.4411 49.6662 82.7645C52.8699 79.7419 55.6246 76.3979 57.8887 72.8247C58.577 72.9285 59.2722 72.9807 59.9683 72.9807C67.0088 72.9807 72.8389 67.7174 73.7411 60.9197C76.623 60.8142 79.6838 60.8134 82.5823 60.9188C83.4837 67.7174 89.3146 72.9811 96.3551 72.9811C99.299 72.9811 102.03 72.0585 104.279 70.4913C105.841 73.6882 106.424 77.2852 105.802 80.8682ZM23.4445 50.7217C28.0994 50.7217 31.886 54.5088 31.886 59.1637C31.886 60.8355 31.3954 62.3946 30.5531 63.7076C29.15 65.896 26.7648 67.396 24.0245 67.5831C23.8327 67.5958 23.6393 67.6052 23.4445 67.6052C22.4071 67.6052 21.4135 67.416 20.4946 67.0724C18.6442 66.3766 17.0946 65.0568 16.1132 63.3406C15.3844 62.0692 15.0015 60.6291 15.0026 59.1637C15.0026 54.5088 18.7897 50.7217 23.4445 50.7217ZM51.5272 59.0833C51.5272 54.8541 54.6535 51.3425 58.7157 50.7353C59.1247 50.6737 59.5431 50.6418 59.9687 50.6418C62.675 50.6418 65.0845 51.9237 66.6296 53.9102C67.0166 54.4055 67.3471 54.9424 67.6151 55.511C68.1398 56.6287 68.4113 57.8485 68.4102 59.0833C68.4102 59.7581 68.3286 60.4141 68.1785 61.0434C67.3558 64.4873 64.419 67.12 60.8203 67.4823C60.5406 67.5104 60.2565 67.5248 59.9687 67.5248C58.345 67.5262 56.7558 67.0563 55.3938 66.1723C53.0697 64.6668 51.5272 62.0523 51.5272 59.0833ZM86.7597 49.0448C84.9227 50.7983 83.6006 53.021 82.9369 55.4723C79.7551 55.355 76.57 55.355 73.3882 55.4723C72.6739 52.8226 71.1934 50.4849 69.2015 48.7094L77.9368 31.0466L86.7597 49.0453V49.0448ZM49.1322 5.45675H106.717L93.1161 45.5703C92.5309 45.7104 91.9556 45.8887 91.3937 46.1039L77.958 18.6956L64.4841 45.9402C63.8967 45.7386 63.2964 45.5768 62.6873 45.4559L49.1322 5.45675ZM104.797 59.0837C104.797 59.9298 104.67 60.747 104.438 61.5187C103.886 63.3355 102.74 64.9144 101.184 66.0023C99.7694 66.9949 98.0831 67.5268 96.3551 67.5252C92.4575 67.5252 89.1696 64.8691 88.2027 61.2721C88.0107 60.5585 87.9135 59.8227 87.9136 59.0837C87.9136 57.9298 88.1466 56.8294 88.5675 55.8269C88.7847 55.3139 89.0522 54.8237 89.366 54.3634C90.8852 52.121 93.4486 50.6422 96.3551 50.6422C96.6217 50.6422 96.8844 50.6558 97.1451 50.6805C101.431 51.0797 104.797 54.695 104.797 59.0837H104.797ZM110.253 59.0837C110.253 52.2987 105.364 46.6375 98.9253 45.4283L114.328 0H41.5223L56.9486 45.5201C50.7334 46.9032 46.0713 52.4573 46.0713 59.0833C46.0713 64.0588 48.7006 68.4287 52.6412 70.8846C50.7457 73.7086 48.4982 76.366 45.9225 78.7963C41.8374 82.6497 37.2867 85.5724 32.3805 87.4955C27.4387 84.3913 25.3498 78.537 27.519 73.4374L27.6891 73.0377L28.008 72.2877C33.4358 70.3943 37.3419 65.2284 37.3419 59.1637C37.3419 51.5002 31.1075 45.2658 23.4445 45.2658C15.7811 45.2658 9.54671 51.5002 9.54671 59.1637C9.54671 63.0315 11.1369 66.5342 13.6956 69.0563C13.2184 70.0674 12.7339 71.0751 12.2423 72.0793C9.90258 76.8843 7.25116 82.3304 6.24817 88.3786C4.25663 100.39 7.46928 109.992 15.2947 115.415C20.0431 118.706 24.8655 120 29.7181 120C38.8552 120 48.0985 115.409 57.1391 110.919C63.6499 107.685 70.3826 104.341 77.0328 102.701C79.5074 102.091 82.0534 101.723 84.749 101.335C90.0948 100.563 95.6221 99.7662 100.518 96.9306C106.194 93.6431 110.079 88.1286 111.178 81.8019C112.121 76.3702 110.986 70.9301 108.218 66.316C109.552 64.1395 110.256 61.636 110.253 59.0833L110.253 59.0837Z"
              fill="white"/>
    </g>


    <g id="git">
        <g clip-path="url(#clip0_2_5685)">
            <path d="M103.02 47.8219L57.1758 1.98038C54.5372 -0.6598 50.2552 -0.6598 47.6134 1.98038L38.0937 11.5001L50.1699 23.5763C52.9762 22.6281 56.1943 23.2642 58.4313 25.5012C60.6789 27.7525 61.3106 30.9981 60.3393 33.8134L71.9775 45.452C74.7932 44.482 78.0421 45.1095 80.291 47.3621C83.434 50.5039 83.434 55.596 80.291 58.7399C77.1471 61.8841 72.055 61.8841 68.9095 58.7399C66.5454 56.3733 65.9613 52.9013 67.1582 49.9888L56.3046 39.1352L56.3034 67.6973C57.0902 68.0863 57.8088 68.6002 58.4313 69.2189C61.5743 72.3607 61.5743 77.4532 58.4313 80.5995C55.2874 83.7422 50.1929 83.7422 47.0535 80.5995C43.9105 77.4532 43.9105 72.3611 47.0535 69.2193C47.8067 68.4658 48.7019 67.869 49.6871 67.4635V38.6352C48.7004 38.2324 47.8048 37.6353 47.0535 36.8793C44.6722 34.5013 44.0996 31.0071 45.3198 28.0831L33.4154 16.1775L1.98105 47.6099C-0.660352 50.2525 -0.660352 54.5349 1.98105 57.1755L47.8259 103.018C50.4652 105.658 54.7464 105.658 57.3891 103.018L103.019 57.3884C105.66 54.747 105.66 50.4621 103.019 47.8219"
                  fill="#DE4C36"/>
        </g>
        <defs>
            <clipPath id="clip0_2_5685">
                <rect width="105" height="105" fill="white"/>
            </clipPath>
        </defs>

    </g>

    <g id="github">

        <path fill-rule="evenodd" clip-rule="evenodd"
              d="M44 0C19.69 0 0 19.69 0 44C0 63.47 12.595 79.915 30.085 85.745C32.285 86.13 33.11 84.81 33.11 83.655C33.11 82.61 33.055 79.145 33.055 75.46C22 77.495 19.14 72.765 18.26 70.29C17.765 69.025 15.62 65.12 13.75 64.075C12.21 63.25 10.01 61.215 13.695 61.16C17.16 61.105 19.635 64.35 20.46 65.67C24.42 72.325 30.745 70.455 33.275 69.3C33.66 66.44 34.815 64.515 36.08 63.415C26.29 62.315 16.06 58.52 16.06 41.69C16.06 36.905 17.765 32.945 20.57 29.865C20.13 28.765 18.59 24.255 21.01 18.205C21.01 18.205 24.695 17.05 33.11 22.715C36.63 21.725 40.37 21.23 44.11 21.23C47.85 21.23 51.59 21.725 55.11 22.715C63.525 16.995 67.21 18.205 67.21 18.205C69.63 24.255 68.09 28.765 67.65 29.865C70.455 32.945 72.16 36.85 72.16 41.69C72.16 58.575 61.875 62.315 52.085 63.415C53.68 64.79 55.055 67.43 55.055 71.555C55.055 77.44 55 82.17 55 83.655C55 84.81 55.825 86.185 58.025 85.745C66.7597 82.796 74.3497 77.1822 79.7268 69.6937C85.1039 62.2052 87.9974 53.219 88 44C88 19.69 68.31 0 44 0Z"
              fill="black"/>

    </g>


    <g id="webstorm">
        <defs>
            <linearGradient x1="41.7030965%" y1="1.92488263%" x2="71.8761384%" y2="95.2347418%" id="linearGradient-1">
                <stop stop-color="#00CDD7" offset="28%">

                </stop>
                <stop stop-color="#2086D7" offset="94%">

                </stop>
            </linearGradient>
            <linearGradient x1="22.4892241%" y1="15.1271186%" x2="82.8771552%" y2="84.7627119%" id="linearGradient-2">
                <stop stop-color="#FFF045" offset="14%">

                </stop>
                <stop stop-color="#00CDD7" offset="37%">

                </stop>
            </linearGradient>
            <linearGradient x1="11171%" y1="-27691.7984%" x2="11907%" y2="-28759.6256%" id="linearGradient-3">
                <stop stop-color="#00CDD7" offset="28%">

                </stop>
                <stop stop-color="#2086D7" offset="94%">

                </stop>
            </linearGradient>
        </defs>
        <g>
            <polygon fill="url(#linearGradient-1)"
                     points="34.4 231.2 0 26.8 64 0.4 104.4 24.4 142 4.4 219.6 34.4 176 256">

            </polygon>
            <polygon fill="url(#linearGradient-2)"
                     points="256 86.8 222.8 5.2 163.2 0 70.4 88.8 95.2 203.6 142 236 256 168.4 228 116">

            </polygon>
            <polygon fill="url(#linearGradient-3)" points="204.8 74.4 228 116 256 86.8 235.6 36">

            </polygon>
            <rect fill="#000000" x="48" y="48" width="160" height="160">

            </rect>
            <path d="M63.2,178 L123.2,178 L123.2,188 L63.2,188 L63.2,178 Z M141.6,125.6 L150,115.2 C156,120 162,123.2 169.6,123.2 C175.6,123.2 179.2,120.8 179.2,116.8 C179.2,113.2 176.8,111.2 166,108.4 C152.8,104.8 144.4,101.2 144.4,88 L144.4,87.6 C144.4,75.6 154,67.6 167.2,67.6 C176.04879,67.5627811 184.649333,70.5236236 191.6,76 L184,87.2 C179.170815,83.4261245 173.316089,81.1957528 167.2,80.8 C162,80.8 158.8,83.2 158.8,86.8 C158.8,91.2 161.6,92.8 172.8,95.6 C186,99.2 193.6,104 193.6,115.6 C193.6,128.8 183.6,136.4 169.6,136.4 C159.323641,136.02223 149.468301,132.220884 141.6,125.6 Z M128.8,68.8 L118.8,107.2 L107.6,68.8 L96.4,68.8 L85.2,107.2 L75.2,68.8 L59.6,68.8 L78.8,135.2 L91.2,135.2 L102,96.8 L112.8,135.2 L125.2,135.2 L144.4,68.8 L128.8,68.8 Z"
                  fill="#FFFFFF">

            </path>
        </g>
    </g>


    <g id="wave">
        <path fill-rule="evenodd" clip-rule="evenodd"
              d="M0 65.5664L60 52.0944C120 38.6224 240 12.2908 360 3.71769C480 -5.46775 600 3.71769 720 16.5773C840 30.0493 960 47.8078 1080 52.0944C1200 56.3809 1320 47.8078 1380 43.5213L1440 38.6224V250.5H1380C1320 250.5 1200 250.5 1080 250.5C960 250.5 840 250.5 720 250.5C600 250.5 480 250.5 360 250.5C240 250.5 120 250.5 60 250.5H0V65.5664Z"
              fill="#343D68"/>
    </g>


</svg>
